<?xml version="1.0" encoding="utf-8"?>
<!-- Generator: Adobe Illustrator 17.1.0, SVG Export Plug-In . SVG Version: 6.00 Build 0)  -->
<!DOCTYPE svg PUBLIC "-//W3C//DTD SVG 1.1//EN" "http://www.w3.org/Graphics/SVG/1.1/DTD/svg11.dtd">
<svg version="1.1" id="Layer_1" xmlns="http://www.w3.org/2000/svg" xmlns:xlink="http://www.w3.org/1999/xlink" x="0px" y="0px"
	 viewBox="51.8 193.4 500.7 106.4" enable-background="new 51.8 193.4 500.7 106.4" xml:space="preserve">
<g>
	<g>
		<defs>
			<rect id="SVGID_1_" x="51.8" y="193.4" width="500.7" height="106.4"/>
		</defs>
		<clipPath id="SVGID_2_">
			<use xlink:href="#SVGID_1_"  overflow="visible"/>
		</clipPath>
		<path clip-path="url(#SVGID_2_)" fill="#641B0F" d="M64.7,252.6c0,3.3-3,5.9-6.5,5.9c-3.6,0-6.4-2.7-6.4-6c0-3.3,3-5.9,6.5-5.9
			C61.9,246.6,64.8,249.3,64.7,252.6"/>
	</g>
	<g>
		<defs>
			<rect id="SVGID_3_" x="51.8" y="193.4" width="500.7" height="106.4"/>
		</defs>
		<clipPath id="SVGID_4_">
			<use xlink:href="#SVGID_3_"  overflow="visible"/>
		</clipPath>
		<path clip-path="url(#SVGID_4_)" fill="#641B0F" d="M539.6,252.9c0,3.3,2.9,5.9,6.4,6c3.6,0,6.5-2.6,6.5-5.9c0-3.3-2.9-5.9-6.4-6
			C542.5,247,539.6,249.6,539.6,252.9"/>
	</g>
	<g>
		<defs>
			<rect id="SVGID_5_" x="51.8" y="193.4" width="500.7" height="106.4"/>
		</defs>
		<clipPath id="SVGID_6_">
			<use xlink:href="#SVGID_5_"  overflow="visible"/>
		</clipPath>
		<path clip-path="url(#SVGID_6_)" fill="#641B0F" d="M315.4,223.8l0,8.9l-13.3,0.1l-13.3,0.1l0-8.9c0,0-12.6,0.1-31.5,0.2
			c-9.4,0.1-20.5,0.1-32.3,0.2c-11.8-0.1-24.4-0.2-37-0.2c-50.4-0.4-100.7-0.7-100.7-0.7l-0.6,58.7c0,0,53.8,0.4,107.7,0.8
			c26.9,0.3,53.9,0,74.1-0.1c20.2-0.1,33.7-0.2,33.7-0.2s53.8-0.3,107.6-0.6c13.3,0,26.7-0.1,39.2-0.1c12.5,0,24.2-0.1,34.3,0
			c20.1,0.2,33.6,0.3,33.6,0.3l0.4-58.7c0,0-12.6-0.1-31.5-0.2c-4.7,0-9.9-0.1-15.3-0.1c-5.4,0-11.2,0-17.1,0.1
			c-11.9,0-24.5,0.1-37.2,0.1C365.8,223.5,315.4,223.8,315.4,223.8"/>
	</g>
	<g>
		<defs>
			<rect id="SVGID_7_" x="51.8" y="193.4" width="500.7" height="106.4"/>
		</defs>
		<clipPath id="SVGID_8_">
			<use xlink:href="#SVGID_7_"  overflow="visible"/>
		</clipPath>
		
			<path clip-path="url(#SVGID_8_)" fill="none" stroke="#010101" stroke-width="2.9738" stroke-linecap="round" stroke-linejoin="round" d="
			M315.4,223.8l0,8.9l-13.3,0.1l-13.3,0.1l0-8.9c0,0-12.6,0.1-31.5,0.2c-9.4,0.1-20.5,0.1-32.3,0.2c-11.8-0.1-24.4-0.2-37-0.2
			c-50.4-0.4-100.7-0.7-100.7-0.7l-0.6,58.7c0,0,53.8,0.4,107.7,0.8c26.9,0.3,53.9,0,74.1-0.1c20.2-0.1,33.7-0.2,33.7-0.2
			s53.8-0.3,107.6-0.6c13.3,0,26.7-0.1,39.2-0.1c12.5,0,24.2-0.1,34.3,0c20.1,0.2,33.6,0.3,33.6,0.3l0.4-58.7c0,0-12.6-0.1-31.5-0.2
			c-4.7,0-9.9-0.1-15.3-0.1c-5.4,0-11.2,0-17.1,0.1c-11.9,0-24.5,0.1-37.2,0.1C365.8,223.5,315.4,223.8,315.4,223.8z"/>
	</g>
	<g>
		<defs>
			<rect id="SVGID_9_" x="51.8" y="193.4" width="500.7" height="106.4"/>
		</defs>
		<clipPath id="SVGID_10_">
			<use xlink:href="#SVGID_9_"  overflow="visible"/>
		</clipPath>
		<path clip-path="url(#SVGID_10_)" fill="#641B0F" d="M288.9,229.4c-11.8,0.1-31.6,0.2-63.7,0.4c-32.2-0.2-76.7-0.5-138.2-1
			c0,0-8.7,23.8-28.6,23.6c19.9,0.1,28.1,24,28.1,24s44.1,0.3,93.1,0.7c12.2,0.1,24.8,0.2,37.1,0.3c12.3,0.1,24.2-0.1,35.3-0.1
			c22.1-0.1,40.5-0.3,50.4-0.3c19.7-0.1,73.6-0.4,122.5-0.7c24.3,0,47.4-0.3,64.5,0c17.1,0.1,28.1,0.2,28.1,0.2s8.6-23.8,28.5-23.6
			c-19.9-0.2-28.2-24.1-28.2-24.1c-15.4-0.1-29.7-0.2-43-0.3c-13.4,0-25.8,0.1-37.2,0.1c-22.9,0.1-42.2,0.2-58.3,0.2
			c-32.2,0.2-51.9,0.3-63.7,0.4"/>
	</g>
	<g>
		<defs>
			<rect id="SVGID_11_" x="51.8" y="193.4" width="500.7" height="106.4"/>
		</defs>
		<clipPath id="SVGID_12_">
			<use xlink:href="#SVGID_11_"  overflow="visible"/>
		</clipPath>
		
			<path clip-path="url(#SVGID_12_)" fill="none" stroke="#010101" stroke-width="1.488" stroke-linecap="round" stroke-linejoin="round" d="
			M288.9,229.4c-11.8,0.1-31.6,0.2-63.7,0.4c-32.2-0.2-76.7-0.5-138.2-1c0,0-8.7,23.8-28.6,23.6c19.9,0.1,28.1,24,28.1,24
			s44.1,0.3,93.1,0.7c12.2,0.1,24.8,0.2,37.1,0.3c12.3,0.1,24.2-0.1,35.3-0.1c22.1-0.1,40.5-0.3,50.4-0.3
			c19.7-0.1,73.6-0.4,122.5-0.7c24.3,0,47.4-0.3,64.5,0c17.1,0.1,28.1,0.2,28.1,0.2s8.6-23.8,28.5-23.6
			c-19.9-0.2-28.2-24.1-28.2-24.1c-15.4-0.1-29.7-0.2-43-0.3c-13.4,0-25.8,0.1-37.2,0.1c-22.9,0.1-42.2,0.2-58.3,0.2
			c-32.2,0.2-51.9,0.3-63.7,0.4"/>
	</g>
	<g>
		<defs>
			<rect id="SVGID_13_" x="51.8" y="193.4" width="500.7" height="106.4"/>
		</defs>
		<clipPath id="SVGID_14_">
			<use xlink:href="#SVGID_13_"  overflow="visible"/>
		</clipPath>
		<path clip-path="url(#SVGID_14_)" fill="#641B0F" d="M311.2,201.7c0,4.6-9,14.5-9,14.5s-9.1-9.8-9.1-14.4c0-4.6,4-8.3,9-8.4
			C307.1,193.4,311.1,197.1,311.2,201.7"/>
	</g>
	<g>
		<defs>
			<rect id="SVGID_15_" x="51.8" y="193.4" width="500.7" height="106.4"/>
		</defs>
		<clipPath id="SVGID_16_">
			<use xlink:href="#SVGID_15_"  overflow="visible"/>
		</clipPath>
		<path clip-path="url(#SVGID_16_)" fill="#641B0F" d="M307.9,223.9c0,2.9-2.6,5.3-5.7,5.3c-3.2,0-5.8-2.3-5.8-5.2
			c0-2.9,2.6-5.3,5.7-5.3C305.3,218.6,307.9,221,307.9,223.9"/>
	</g>
	<g>
		<defs>
			<rect id="SVGID_17_" x="51.8" y="193.4" width="500.7" height="106.4"/>
		</defs>
		<clipPath id="SVGID_18_">
			<use xlink:href="#SVGID_17_"  overflow="visible"/>
		</clipPath>
		<path clip-path="url(#SVGID_18_)" fill="#641B0F" d="M296.3,217.7c0,0-3.9-11.5-18.4-11.4l-10.6,9.8
			C267.3,216.1,283.3,210.3,296.3,217.7"/>
	</g>
	<g>
		<defs>
			<rect id="SVGID_19_" x="51.8" y="193.4" width="500.7" height="106.4"/>
		</defs>
		<clipPath id="SVGID_20_">
			<use xlink:href="#SVGID_19_"  overflow="visible"/>
		</clipPath>
		<path clip-path="url(#SVGID_20_)" fill="#641B0F" d="M308,217.7c0,0,3.8-11.5,18.3-11.6l10.7,9.7C336.9,215.7,321,210,308,217.7"
			/>
	</g>
	<g>
		<defs>
			<rect id="SVGID_21_" x="51.8" y="193.4" width="500.7" height="106.4"/>
		</defs>
		<clipPath id="SVGID_22_">
			<use xlink:href="#SVGID_21_"  overflow="visible"/>
		</clipPath>
		<path clip-path="url(#SVGID_22_)" fill="#641B0F" d="M298.7,286.4l-27.6,0.2C271.1,286.6,275,298.8,298.7,286.4"/>
	</g>
	<g>
		<defs>
			<rect id="SVGID_23_" x="51.8" y="193.4" width="500.7" height="106.4"/>
		</defs>
		<clipPath id="SVGID_24_">
			<use xlink:href="#SVGID_23_"  overflow="visible"/>
		</clipPath>
		<path clip-path="url(#SVGID_24_)" fill="#641B0F" d="M299.2,286.9c0,0-10.2,8.8-17.9,8.9C281.3,295.8,299.2,300.3,299.2,286.9"/>
	</g>
	<g>
		<defs>
			<rect id="SVGID_25_" x="51.8" y="193.4" width="500.7" height="106.4"/>
		</defs>
		<clipPath id="SVGID_26_">
			<use xlink:href="#SVGID_25_"  overflow="visible"/>
		</clipPath>
		<path clip-path="url(#SVGID_26_)" fill="#641B0F" d="M305.9,286.4l27.6-0.2C333.5,286.2,329.7,298.5,305.9,286.4"/>
	</g>
	<g>
		<defs>
			<rect id="SVGID_27_" x="51.8" y="193.4" width="500.7" height="106.4"/>
		</defs>
		<clipPath id="SVGID_28_">
			<use xlink:href="#SVGID_27_"  overflow="visible"/>
		</clipPath>
		<path clip-path="url(#SVGID_28_)" fill="#641B0F" d="M305.4,286.8c0,0,10.3,8.7,18,8.7C323.4,295.5,305.4,300.3,305.4,286.8"/>
	</g>
	<g>
		<defs>
			<rect id="SVGID_29_" x="51.8" y="193.4" width="500.7" height="106.4"/>
		</defs>
		<clipPath id="SVGID_30_">
			<use xlink:href="#SVGID_29_"  overflow="visible"/>
		</clipPath>
		<path clip-path="url(#SVGID_30_)" fill="#641B0F" d="M305.2,293.2c0,3.6-1.3,6.6-2.8,6.6c-1.6,0-2.8-2.9-2.9-6.6
			c0-3.6,2.8-6.6,2.8-6.6S305.1,289.5,305.2,293.2"/>
	</g>
</g>
</svg>
