<?xml version="1.0" encoding="utf-8"?>
<!-- Generator: Adobe Illustrator 17.1.0, SVG Export Plug-In . SVG Version: 6.00 Build 0)  -->
<!DOCTYPE svg PUBLIC "-//W3C//DTD SVG 1.1//EN" "http://www.w3.org/Graphics/SVG/1.1/DTD/svg11.dtd">
<svg version="1.1" id="Layer_1" xmlns="http://www.w3.org/2000/svg" xmlns:xlink="http://www.w3.org/1999/xlink" x="0px" y="0px"
	 viewBox="128.4 129 362.2 458.5" enable-background="new 128.4 129 362.2 458.5" xml:space="preserve">
<g>
	<g>
		<path fill="#825421" d="M309.4,577c-29.3-21.7-56.3-23.5-64.3-23.5c-0.3,0-0.5,0-0.7,0c-47.7-7-57.5-32.8-57.8-33.9l-1.3-4.3
			l-4.2-1c-24.1-7-30.6-19.1-31.2-20.3l-0.4-0.9l-0.5-0.6c-8.5-11.8-12.4-31.2-11.2-56c0.8-16.6,3.6-30.4,4.4-34.2
			c18.1-33.7,3.2-73.8,2.5-75.5l-0.1-0.3l-0.1-0.3c-8.9-19.2-8.1-56.8-7.9-61.1c7.7-53.1,42.6-58.5,44.1-58.7l6-0.7l1.1-5.9
			c6.1-31.9,46.3-35.3,52.2-35.6c2.6,0.4,5.4,0.6,8.2,0.6c24.9,0,50.2-16.9,61.2-25.3c11,8.4,36.4,25.3,61.2,25.3
			c2.8,0,5.5-0.2,8.2-0.6c2.8,0.2,13.4,1,24.4,5.3C419,175.8,428.4,186,431,200l1.1,5.9l6,0.7c1.4,0.2,36.3,5.6,44,58.7
			c0.1,4.3,1,41.9-7.9,61.1l-0.1,0.3l-0.1,0.3c-0.7,1.7-15.6,41.8,2.5,75.5c1.8,8.2,12.7,63.1-6.7,90.2l-0.6,0.9l-0.2,0.7
			c-0.6,1.2-7.2,13.3-31.2,20.3l-4.3,1.2l-1.2,4.1c-0.4,1-10.1,26.8-57.8,33.8c-0.2,0-0.4,0-0.7,0
			C365.8,553.5,338.8,555.3,309.4,577z"/>
		<g>
			<path d="M309.5,149.9c13.5,9.5,37.3,23.4,61.2,23.4c2.9,0,5.8-0.2,8.5-0.6c3.1,0.2,11.7,1.1,20.7,4.6c19.9,7.6,22.2,20.2,23,24.3
				l2.2,11.8l12,1.4c0.1,0,6.8,1.2,14.4,7c11.8,9,19.4,23.9,22.4,44.3c0.4,10.9-0.2,41.9-7.2,56.8l-0.2,0.5l-0.2,0.6
				c-0.7,1.8-16.6,44.6,2.4,81.3c3.7,16.9,9.3,61.7-5.6,82.4l-1,0.8l-0.7,2.1c-1.1,1.8-7.2,10.4-26,15.8l-8.6,1.8l-2.4,8.8
				c-1,2.4-10.7,22.3-50.6,28.3c0,0-0.1,0-0.1,0c-8.1,0-34.8,1.7-64.3,21.7c-29.5-20-56.1-21.7-64.3-21.7c0,0-0.1,0-0.1,0
				c-39.9-6-49.6-25.9-50.6-28.3l-2.1-7.9l-8.9-2.6c-18.7-5.4-24.8-13.9-26-15.8l-0.2-0.9l-1.5-2c-7.3-10.2-10.7-27.6-9.7-50.2
				c0.7-14.8,3.1-27.5,4.1-32.3c19-36.7,3.1-79.4,2.4-81.2l-0.2-0.6l-0.3-0.5c-7-14.9-7.6-45.3-7.2-56.8c2.9-19.6,10-34.2,21.1-43.3
				c7.7-6.3,14.7-7.8,15.8-8l11.8-1l2.3-12.3c2.1-11,9.4-18.9,22.3-24c9.1-3.6,18.1-4.6,21.4-4.8c2.8,0.4,5.6,0.6,8.5,0.6
				c14.9,0,31.3-5.2,48.9-15.5C301.8,155.1,306,152.3,309.5,149.9 M309.5,129h-0.2C309.4,129,309.4,129.1,309.5,129
				C309.5,129.1,309.5,129,309.5,129L309.5,129z M309.4,129.1c-1.9,1.6-32.7,27.6-61.2,27.6c-2.6,0-5.1-0.2-7.6-0.7
				c0,0-53,1.1-60.8,42.4c0,0-42.6,5.2-51.3,66.1c0,0-1.7,42.9,8.7,65.3c0,0,14.8,38.7-2.6,69.6c0,0-15.6,65.3,7.8,97.9
				c0,0,7,16.3,36.5,24.9c0,0,10.4,31.8,65.2,39.5c0,0,0.4,0,1.1,0c6,0,34.4,1.4,64.3,25.7c29.8-24.4,58.3-25.7,64.3-25.7
				c0.7,0,1.1,0,1.1,0c54.7-7.7,65.2-39.5,65.2-39.5c29.5-8.6,36.5-24.9,36.5-24.9c23.5-32.6,7.8-97.9,7.8-97.9
				c-17.4-30.9-2.6-69.6-2.6-69.6c10.4-22.3,8.7-65.3,8.7-65.3c-8.7-61-51.3-66.1-51.3-66.1c-7.8-41.2-60.8-42.4-60.8-42.4
				c-2.5,0.5-5.1,0.7-7.6,0.7C342.1,156.8,311.3,130.7,309.4,129.1L309.4,129.1z M309.4,587.5C309.4,587.5,309.4,587.5,309.4,587.5
				L309.4,587.5C309.5,587.5,309.5,587.5,309.4,587.5L309.4,587.5z"/>
		</g>
	</g>
	<g>
		<path fill="#78625A" d="M309.9,545.4C284.6,526,260.7,525,256.1,525c-0.3,0-0.5,0-0.7,0c-17.3-2.5-31.4-8.5-41-17.4
			c-7.2-6.7-9.3-12.7-9.3-12.8l-0.8-2.4l-2.4-0.7c-21.9-6.4-27.3-17.9-27.5-18.4l-0.2-0.5l-0.3-0.4c-17.1-24.1-7.2-72.5-5.9-78.5
			c14.9-27.7,2.7-61,2.1-62.4l-0.1-0.2l-0.1-0.2c-7.8-16.9-6.9-49.8-6.9-52.9c6.7-46.9,37.5-51.5,38.8-51.7l3.5-0.5l0.7-3.4
			c5.4-29,41.5-31.8,45.9-32c2.2,0.4,4.4,0.6,6.7,0.6c21.2,0,43.1-15.5,51.3-22c8.2,6.5,30.1,22,51.3,22c2.3,0,4.6-0.2,6.7-0.6
			c2.1,0.1,11.5,0.8,21.2,4.6c14,5.5,22.3,14.7,24.7,27.4l0.6,3.5l3.5,0.4c1.3,0.2,32,4.8,38.7,51.7c0.1,3.1,0.9,36-6.9,52.9
			l-0.1,0.2l-0.1,0.2c-0.5,1.4-12.8,34.7,2.1,62.4c1.3,6,11.2,54.4-5.9,78.5l-0.3,0.4l-0.2,0.5c-0.2,0.4-5.6,11.9-27.5,18.4
			l-2.4,0.7l-0.8,2.4c0,0-2.1,6.1-9.3,12.7c-9.5,8.9-23.7,14.9-41,17.4c-0.2,0-0.4,0-0.7,0C359.1,525,335.2,526,309.9,545.4z"/>
		<g>
			<path d="M309.9,175.3c10.2,7.6,30.9,20.8,51.3,20.8c2.4,0,4.7-0.2,7-0.5c2.5,0.2,10.6,0.9,19,4.2c12.5,4.8,19.9,12.9,21.9,23.9
				l1.3,6.9l7,0.9c0.1,0,6.6,1,14,6.7c10.7,8.2,17.8,22.3,20.5,40.6c0.3,9.9-0.2,36.9-6.4,50.4l-0.1,0.3l-0.1,0.3
				c-0.6,1.5-13.4,36.3,2.1,65.8c3.4,15.2,8.4,54.8-5.3,74l-0.6,0.6l-0.4,1.1c-0.6,1.2-6,10.3-24.5,15.7l-5,1.2l-1.4,5
				c-0.6,1.7-8.9,21.3-46,26.9c-0.1,0-0.2,0-0.4,0c-6.7,0-29.2,1.5-53.8,19.3c-24.6-17.8-47.1-19.3-53.8-19.3c-0.1,0-0.3,0-0.4,0
				c-37.1-5.6-45.4-25.2-46.1-26.9l-1.4-4.7l-5.1-1.5c-18.4-5.4-23.8-14.4-24.4-15.7l-0.2-0.7l-0.8-1.1c-13.6-19.2-8.7-58.8-5.3-74
				c15.5-29.5,2.7-64.3,2.1-65.8l-0.1-0.3l-0.1-0.3c-6.2-13.5-6.8-40.5-6.4-50.4c6.1-42.1,32.7-47.1,34.6-47.4l6.9-0.7l1.3-7.1
				c2-10.9,9.3-18.8,21.5-23.7c8.6-3.4,16.9-4.2,19.4-4.3c2.3,0.4,4.6,0.5,7,0.5C279,196.1,299.7,182.9,309.9,175.3 M310,162.9h-0.2
				C309.8,162.9,309.9,163,310,162.9C310,163,310,162.9,310,162.9L310,162.9z M309.9,163c-1.6,1.4-27.4,23.4-51.3,23.4
				c-2.2,0-4.3-0.2-6.4-0.6c0,0-44.4,1-51,35.9c0,0-35.7,4.4-43,56.1c0,0-1.5,36.4,7.3,55.3c0,0,12.4,32.8-2.2,59
				c0,0-13.1,55.3,6.6,83c0,0,5.8,13.8,30.6,21.1c0,0,8.7,26.9,54.6,33.5c0,0,0.3,0,1,0c5,0,28.9,1.1,53.8,21.8
				c25-20.7,48.8-21.8,53.8-21.8c0.6,0,1,0,1,0c45.9-6.6,54.6-33.5,54.6-33.5c24.8-7.3,30.6-21.1,30.6-21.1c19.7-27.7,6.6-83,6.6-83
				c-14.6-26.2-2.2-59-2.2-59c8.7-18.9,7.3-55.3,7.3-55.3c-7.3-51.7-43-56.1-43-56.1c-6.6-35-51-35.9-51-35.9
				c-2.1,0.4-4.2,0.6-6.4,0.6C337.3,186.4,311.5,164.4,309.9,163L309.9,163z M309.9,551.6C309.9,551.6,309.9,551.7,309.9,551.6
				L309.9,551.6C310,551.7,309.9,551.6,309.9,551.6L309.9,551.6z"/>
		</g>
	</g>
	<g>
		<path fill="#641B0F" d="M230.7,232.6h157.4c0,0,12.9,146.2-78.7,173.7C309.4,406.3,220.2,384.2,230.7,232.6z"/>
		
			<line fill="none" stroke="#000000" stroke-width="2.7435" stroke-linecap="round" stroke-miterlimit="10" x1="309.3" y1="233.9" x2="309.3" y2="404.9"/>
		
			<line fill="none" stroke="#000000" stroke-width="2.8251" stroke-linecap="round" stroke-linejoin="bevel" stroke-miterlimit="10" x1="380.9" y1="312.4" x2="237.1" y2="312.4"/>
	</g>
	<path fill="#4C3918" stroke="#FFFFFF" stroke-width="1.3777" stroke-miterlimit="10" d="M285.1,241.9c-2.1,4.1-9.3,17.5-14.3,23.6
		c0,0-5.6-0.6-8.9,5.6l-12.1,23.6c-0.4,0.9-0.3,1.9,0.3,2.6c2.2,2.7,8.1,8.9,16.1,8.4c0.9-0.1,1.6-0.6,2-1.3l12.2-23.8
		c0,0,3.2-4.9,0-10.9c0,0,6.1-13.9,11.7-24.2c0.4-0.7,0.2-1.7-0.5-2.2c-0.8-0.6-2.3-1.4-4.6-2.2
		C286.3,240.9,285.5,241.2,285.1,241.9z"/>
	<path fill="#4C3918" stroke="#FFFFFF" stroke-width="1.3777" stroke-miterlimit="10" d="M358.6,320.3c-2.1,4.1-9.3,17.5-14.3,23.6
		c0,0-5.6-0.6-8.9,5.6l-12.1,23.6c-0.4,0.9-0.3,1.9,0.3,2.6c2.2,2.7,8.1,8.9,16.1,8.4c0.9-0.1,1.6-0.6,2-1.3l12.2-23.8
		c0,0,3.2-4.9,0-10.9c0,0,6.1-13.9,11.7-24.2c0.4-0.7,0.2-1.7-0.5-2.2c-0.8-0.6-2.3-1.4-4.6-2.2
		C359.7,319.2,358.9,319.6,358.6,320.3z"/>
	<path fill="#4C3918" stroke="#FFFFFF" stroke-width="1.3777" stroke-miterlimit="10" d="M245.5,327.5c2.9,3.6,12.4,15.4,16.1,22.4
		c0,0-2.8,4.9,1.7,10.4l16.9,20.4c0.6,0.7,1.6,1.1,2.5,0.8c3.4-0.9,11.4-3.9,14-11.5c0.3-0.8,0.1-1.7-0.4-2.4l-17.1-20.6
		c0,0-3.2-4.8-10-4.3c0,0-10.4-11.1-17.7-20.3c-0.5-0.7-1.5-0.8-2.2-0.4c-0.9,0.5-2.2,1.5-3.8,3.4C245,326,245,326.9,245.5,327.5z"
		/>
	<path fill="#4C3918" stroke="#FFFFFF" stroke-width="1.3777" stroke-miterlimit="10" d="M325.6,246.5c2.7,3.7,11.4,16.2,14.6,23.4
		c0,0-3.1,4.7,1,10.5l15.6,21.5c0.6,0.8,1.5,1.2,2.5,1c3.4-0.7,11.6-3.2,14.8-10.6c0.3-0.8,0.2-1.7-0.3-2.4L358,268.2
		c0,0-2.9-5-9.7-5c0,0-9.7-11.8-16.3-21.4c-0.5-0.7-1.4-0.9-2.2-0.5c-0.9,0.5-2.3,1.4-4,3.1C325.3,245,325.2,245.8,325.6,246.5z"/>
	<g>
		<path stroke="#000000" stroke-width="1.6744" stroke-miterlimit="10" d="M205.6,456l-0.2,0.8l-3-0.5c-0.3,0-0.8,0-1.5,0
			c-0.1,0-0.2-0.1-0.4-0.3l-5.5,0.2l-2.7,0.6l-0.2-0.9c0.2-0.3,0.6-0.4,1.1-0.6c0.6-0.1,1-0.3,1.3-0.5c-1.3-3.7-4.1-8.8-8.4-15.3
			l-3.5,3.3v4.2c0,1.4,0.1,2.2,0.1,2.6c0.1,0.9,0.2,1.8,0.4,2.6c0.1,0.6,0.2,1.2,0.3,1.7c0.2,0.7,0.6,1,1.1,1c0.1,0,0.2,0,0.5,0.1
			c0.3,0,0.5,0.1,0.8,0.1c0.2,0.3,0.3,0.7,0.3,1.2l-0.5,0.3l-2-0.8l-3.9-0.2c-0.8,0-1.1,0-1.1,0l-4.3,1.2c-0.4-0.4-0.5-0.7-0.5-0.8
			c0-0.5,0.5-0.8,1.4-1c0.9-0.2,1.4-0.3,1.5-0.5l0.7-4.6c0-0.6,0-1.6,0-3c0-1.3,0-2.4,0-3.4l-0.2-9.1c-0.1-2.6-0.3-5.1-0.6-7.4
			c-0.1-0.7-0.5-1.1-1.2-1.3c-1-0.2-1.5-0.4-1.7-0.6c-1.1-0.9-1.6-1.8-1.6-2.6c0-0.2,0.2-0.5,0.5-1h0.7c0.1,0.4,0.2,1.1,0.5,2.1
			c0.1,0.2,1,0.6,2.6,1.1l3.1,0.2c1.6,0.1,2.5,0.1,2.7,0c0.9-0.2,1.8-0.5,2.7-0.7h0.7c0.1,0.1,0.1,0.4,0.1,0.9
			c-0.1,0.1-0.6,0.3-1.7,0.6c-0.9,0.3-1.3,0.7-1.3,1.1l-0.2,8.3v6.2c6.4-5.7,10.5-11,12.1-15.7l-2.5-0.5v-0.9l0.6-0.2l3.5,0.6
			l4.6-0.2l2.6-0.6l0.5,0.4c0,0.8-0.2,1.1-0.7,1.1l-2.5,0.3c-2.4,2.2-4.8,4.4-7.2,6.6c-2.4,2.2-3.6,3.5-3.6,3.9
			c0,0.2,1.4,2.5,4.2,6.9c3,4.6,5.1,7.7,6.3,9.2c0.4,0.7,1.1,1.5,2,2.6c0.1,0.1,0.6,0.2,1.4,0.4C204.7,455.5,205.3,455.7,205.6,456z
			 M180.9,454.5l-0.4-28c-0.2-0.2-0.4-0.3-0.8-0.3c-0.2,0-0.4,0.2-0.5,0.6c0.4,14.6,0.6,22.3,0.6,23.1l-0.3,4.7
			C179.7,454.6,180.2,454.6,180.9,454.5z M199.1,454.7l-10.7-17c-0.3,0.1-0.4,0.4-0.4,0.6l9.9,16.6L199.1,454.7z M198.1,425.8
			c-0.9-0.1-1.4,0-1.5,0.2c-0.4,0.6-0.8,1.5-1.4,2.6L198.1,425.8z"/>
		<path stroke="#000000" stroke-width="1.6744" stroke-miterlimit="10" d="M218.3,456.8l-2.8-0.6c-2.1-0.1-3.2-0.1-3.4-0.1
			c-1.2,0.2-2.4,0.4-3.6,0.7l-1,0.3c-0.2-0.1-0.3-0.3-0.4-0.6c0-0.2-0.1-0.5-0.1-0.7s0.8-0.5,2.6-0.8l0.4-4.8l-0.2-20.1l-0.4-3.4
			c-0.1-0.3-0.2-0.5-0.2-0.8c-0.2-0.3-0.4-0.5-0.6-0.5c-0.4-0.1-0.8-0.2-1.3-0.3c-0.6-0.2-0.9-0.5-0.9-0.9c0.1-0.3,0.3-0.5,0.6-0.5
			l4.6,0.9h3.3l3.1-0.7l0.1,1c-0.6,0.2-1.5,0.4-2.7,0.8l-0.4,7.6l0.2,15l0.6,5.5c0,0,0.1,0.3,0.2,1c0.1,0.5,0.3,0.7,0.8,0.7h0.7
			c0.5,0,0.8,0.3,0.8,0.8C218.5,456.3,218.5,456.6,218.3,456.8z M213.5,454.8l-0.4-28.8c-0.2-0.2-0.6-0.2-1.1,0l0.4,27.4
			c-0.2,1.1-0.1,1.7,0.3,1.7C212.9,455,213.2,454.9,213.5,454.8z"/>
		<path stroke="#000000" stroke-width="1.6744" stroke-miterlimit="10" d="M244.1,456.2v3.3l-0.5,0.1c-0.3-0.1-0.5-0.4-0.5-0.9
			c0-0.2,0-0.6,0-1.1c-1.2-0.1-2.4-0.3-3.6-0.4c-0.2,0-0.9-0.2-2-0.5l-10.2-0.6l-6.4,0.7c-0.1-0.2-0.2-0.3-0.2-0.3c0,0,0-0.1,0-0.2
			c0-0.2,0-0.4,0-0.6c0.2-0.2,0.5-0.3,1-0.4c0.5-0.1,0.9-0.1,1.4-0.2c0.5-0.1,0.7-0.2,0.7-0.5c0,0.1,0.1-1.7,0.4-5.4l-0.4-18.3
			l-0.5-4.3c0-0.3-0.1-0.5-0.5-0.7h-1.7c-0.1,0-0.4-0.2-1-0.5c0-0.1,0-0.2,0-0.5c0-0.3,0-0.4,0-0.5c0.2-0.1,0.4-0.1,0.6-0.1
			c0.1,0,0.3,0,0.7,0.1c0.3,0.1,0.6,0.1,0.6,0.1c0.5,0,1.6,0.1,3.3,0.2c1.3,0.1,2.4,0.1,3.3,0c2-0.1,3.4-1.1,4.2-2.8
			c0.1-0.2,0.1-0.2,0.2-0.2s0.3-0.1,0.6-0.2l0.2,0.8c-0.4,1.1-0.6,1.7-0.6,1.7c0,0-0.2,0.2-0.5,0.5c-0.7,0.6-1.7,1.1-3,1.7
			c-0.2,1.8-0.3,3.6-0.5,5.4c0,0.6,0,3.2,0.2,7.7l0.2,11c0,0.5,0.1,1.3,0.2,2.4c0.1,1.1,0.2,1.9,0.2,2.5c2.5-0.1,3.9-0.1,4.2-0.2
			c0.5,0,1.7-0.2,3.6-0.5c3.6-0.9,5.4-1.8,5.4-2.5v-4.4c0-0.6-0.4-1-1.1-1.3c-0.7-0.3-1.1-0.6-1.1-0.8c0-0.6,0.3-0.9,0.9-0.9
			c0.5,0,1.1,0.4,1.7,1.2c0.6,0.8,0.9,1.5,0.9,1.9c0,1-0.1,2.4-0.2,4.3C244.1,453.8,244.1,455.3,244.1,456.2z M227.3,453.5
			l-0.4-22.2c0-0.9,0-2.6,0-5.2c-0.6,0-0.8,0.1-0.8,0.3V455c0.3,0,0.6,0,0.9,0.1c0.3,0,0.5,0.1,0.6,0.1
			C227.4,454.8,227.4,454.3,227.3,453.5z M242.8,455.2c0-0.2-0.1-0.4-0.3-0.5l-3,0.9l2.8,0.3C242.6,455.7,242.8,455.5,242.8,455.2z"
			/>
		<path stroke="#000000" stroke-width="1.6744" stroke-miterlimit="10" d="M274.7,422.4c0,0.3-0.2,0.5-0.5,0.7
			c-0.5,0.3-0.9,0.5-1.1,0.8c-0.2,0.3-0.4,1.1-0.7,2.5l0.1,2.7l0.7,3.5c-0.1,0.3-0.2,0.5-0.2,0.5c-0.1,0.1-0.4,0.2-0.9,0.2
			c-0.1-0.8-1.2-2.3-3.3-4.4c-2.3-2.3-4-3.4-5.3-3.4h-3.6c-2.2,0.4-4.1,2-5.5,4.6c-0.9,1.7-1.5,3.4-1.8,5.1
			c-0.3,1.5-0.4,2.4-0.5,2.6c0,0.3-0.1,1.1-0.1,2.3c0.2,0.3,0.2,1.4,0.2,3.3c0.2,3.1,1.2,5.8,2.8,8.1c1.9,2.5,4.3,3.8,7.2,4l3.8-0.3
			c0.8-0.2,2-0.6,3.4-1.2c0.6-0.3,1.4-0.9,2.4-1.8c0.9-0.8,1.4-1.2,1.5-1.2c0.1,0,0.3,0.1,0.5,0.3c0.2,0.2,0.3,0.4,0.2,0.5
			c-0.6,1.2-2.2,2.4-4.7,3.6c-2.2,1-3.5,1.5-4.1,1.5c-0.9,0.1-2.9,0.1-5.9,0c-3.1-0.2-6.1-1.7-8.9-4.5c-2.9-2.9-4.5-6.1-4.6-9.6
			v-4.7c0.3-3,1.5-5.8,3.8-8.5c2.3-2.7,4.9-4.4,7.8-5.1c2.5-0.3,4.3-0.5,5.4-0.5c1.8,0,4.6,0.6,8.5,1.8c0.2-1.2,0.4-2,0.6-2.4
			c0.5-0.9,1.3-1.4,2.3-1.5L274.7,422.4z M253.7,428c-1.4,0.9-2.6,2.3-3.5,4.1c-0.8,1.6-1.4,3.2-1.7,5c-0.2,1-0.2,2-0.2,3
			c0,1.4,0.2,3,0.6,4.9c0.3,1.5,0.9,3,1.8,4.5c0.9,1.5,1.9,2.6,2.9,3.1c-1.8-2.1-3-4.6-3.7-7.4c-0.4-3.2-0.6-4.6-0.6-4.3
			c0-0.2,0.1-1.3,0.3-3.2C249.9,434.2,251.3,430.9,253.7,428z M271.3,428.1c-0.1-0.5-0.5-0.9-1.2-1.2c-0.5-0.2-1-0.5-1.5-0.7
			l2.7,2.8C271.3,428.6,271.4,428.3,271.3,428.1z"/>
		<path stroke="#000000" stroke-width="1.6744" stroke-miterlimit="10" d="M307.6,443.8l-0.2,1.3c-1.2,3.2-3,5.9-5.4,8.2
			c-2.6,2.4-5.2,3.6-7.7,3.6h-4.4c-2.7,0-5.6-1.5-8.6-4.6c-3-3-4.6-5.8-4.8-8.5l-0.3-4.3l0.3-2.5c0.2-2.4,1.5-4.9,3.7-7.6
			c2.3-2.7,4.6-4.3,7.1-4.9c2-0.5,3.6-0.8,4.7-0.8c0.9,0,1.9,0.1,3,0.3c3,0.5,5.7,2.1,8.2,4.7c2.4,2.6,3.8,5.4,4.2,8.4
			c0.4,1.5,0.5,2.7,0.5,3.7C307.9,441.6,307.8,442.6,307.6,443.8z M282.9,451.2l-2.4-6.8c-0.3-0.9-0.5-2.1-0.5-3.7
			c0-1.2,0.2-3.1,0.5-5.7c0.5-1.4,1-2.9,1.7-4.5c0.4-1,0.6-1.6,0.6-1.7c-2.8,3.4-4.2,6.7-4.1,9.9l0.2,4.4c0,1,0.6,2.6,1.7,4.7
			C281.7,449.8,282.4,450.9,282.9,451.2z M301.6,440.7c0-2.1-0.1-3.6-0.3-4.4c-1.6-7.3-4.7-11.1-9.2-11.3l-2.6,0.4
			c-1.4,0.3-2.8,1.2-4,2.8c-1.1,1.5-1.8,3-2.1,4.5l-0.6,2.9c-0.1,1.2-0.2,2.4-0.2,3.6c0,1.9,0.2,4,0.6,6.3c0,0.3,0.3,1.2,0.9,2.8
			c0.7,1.9,1.5,3.5,2.4,4.7c1.2,1.7,2.4,2.5,3.6,2.5l3.1,0.2c2,0,3.7-1.1,5.4-3.3c1.4-1.9,2.2-3.8,2.4-5.8c0.1-1,0.3-2,0.5-3
			C301.5,443,301.6,442,301.6,440.7z M305,436.5c-1-3.3-2.5-5.9-4.3-7.7c1.7,3.3,2.8,6.3,3.2,9.1c0.1,1.1,0.2,2.2,0.3,3.3
			c0,0.2-0.1,1.2-0.3,3.1c-0.2,1.3-1,3.7-2.5,7.2c1.1-0.3,2-1.6,2.9-4c0.9-2.4,1.3-4.9,1.3-7.4C305.5,438.7,305.4,437.5,305,436.5z"
			/>
		<path stroke="#000000" stroke-width="1.6744" stroke-miterlimit="10" d="M338.1,456.5c0,0.3-0.2,0.4-0.5,0.6s-0.6,0.2-0.8,0.2
			l-2.5,0c-2.3-0.4-4.2-1.7-5.6-4.1c-1.1-2.2-2.2-4.5-3.2-6.7c-1.5-2.5-3.4-4-5.8-4.5l-2.3-1c0,1.3,0,3.3,0.1,5.9l0.7,7.6
			c0,0.2,0.1,0.4,0.4,0.6c0.3,0.2,0.6,0.3,0.8,0.2c0.4,0.1,0.8,0.2,1.2,0.3c0.4,0.1,0.5,0.3,0.5,0.6c0,0.3-0.3,0.5-0.9,0.7
			c-0.1,0-0.5-0.1-1.3-0.4c-0.9-0.3-1.5-0.4-1.8-0.5l-4.1,0.1l-3.1,0.7l-0.9-0.3c-0.1-0.2,0-0.4,0.1-0.6c0.2-0.2,0.3-0.3,0.5-0.4
			c0.9-0.1,1.6-0.4,2.1-0.8l0.4-6.1v-9.7c0-0.8,0-1.8,0-3.2s0-2.4,0-3.1l-0.5-4.6c-0.1-0.4-0.2-0.9-0.3-1.4c-0.2-0.6-0.4-1-0.7-1.1
			c-1.1-0.1-2.1-0.5-2.8-1.2c-0.8-0.7-1.1-1.5-1.1-2.3c0-0.7,0.2-1,0.7-1c0.3,0,0.5,0.2,0.8,0.5v1.3c0,0.3,0.3,0.6,0.8,0.9
			c0.5,0.3,0.9,0.5,1.1,0.5c1.6-0.1,2.9-0.1,3.9,0l7.1-0.5h3c0.4,0,1.2,0.1,2.4,0.3c1.8,0.3,3.5,1.3,4.9,2.9
			c1.5,1.7,2.3,3.5,2.3,5.4l0.1,1.1c0,2-0.8,3.8-2.3,5.4c-1.4,1.4-3.2,2.4-5.5,3c4.1,1.3,6.8,5.2,8.2,11.9c0.1,0.4,0.4,0.9,1,1.4
			c0.6,0.5,1.1,0.7,1.6,0.7c0.1,0,0.2,0,0.4-0.1c0.2-0.1,0.3-0.1,0.4-0.1c0.2,0,0.3,0.1,0.5,0.3C338,456.2,338.1,456.4,338.1,456.5z
			 M315.5,455c-0.1-1.1-0.2-2.2-0.2-3.4c-0.1-0.8-0.1-3.5-0.1-8v-17.8h-1.5l0.3,3.1c0.3,6.8,0.4,12.6,0.4,17.3c0,2.7,0,5.1-0.1,7.3
			c0,0.4,0.1,0.9,0.1,1.4C314.7,455,315,455,315.5,455z M327.8,431.1c-0.2-1.1-0.8-2.2-1.7-3.4c-1-1.1-2-1.9-3-2.2l-3.8-0.2
			l-1.5,0.3l-0.5,4.3v9.8c1.1,0.5,2.6,0.8,4.8,0.8c1.1-0.1,2.3-0.6,3.4-1.5c1.1-0.9,1.8-1.9,2.2-3l0.1-0.4c0.2-0.9,0.3-1.5,0.3-1.8
			C327.9,433,327.9,432.1,327.8,431.1z M333,455.3c-1-2.2-2-4.5-3-6.7c-1.3-2.5-3-4.3-5-5.4c1.5,1.3,2.8,3.1,3.9,5.4
			c0.8,1.6,1.5,3.3,2.3,4.9C331.6,454.2,332.2,454.8,333,455.3z M331.3,431.9c0-1-0.6-2.2-1.7-3.6c-1.1-1.4-2.2-2.2-3.2-2.4
			c1.7,1.3,2.9,2.9,3.6,4.9c0.2,0.9,0.2,1.8,0.2,2.5c0,3.1-1.4,5.5-4.2,7.1c1.2-0.2,2.3-0.8,3.2-1.7s1.5-1.9,1.8-3
			c0.2-0.8,0.3-1.2,0.3-1.3c0-0.1,0-0.3,0-0.7C331.3,433.1,331.3,432.5,331.3,431.9z"/>
		<path stroke="#000000" stroke-width="1.6744" stroke-miterlimit="10" d="M382.1,456.6c-0.3,0.2-0.5,0.3-0.6,0.3l-3.2-0.9h-3.8
			c-0.1,0-0.4,0.1-1.1,0.2c-0.7,0.1-1.1,0.2-1.3,0.2l-1.4,0.7c-0.1,0-0.2,0-0.4-0.2c-0.2-0.1-0.2-0.3-0.2-0.4c0-0.7,0.4-1.1,1.3-1
			l1.1-0.2c0.5-0.2,0.7-0.6,0.7-1.1l0.4-5.1l0-11.6l-0.3-7.6c-0.1,0.1-1.8,4.7-5.1,13.8c-2.8,7.7-4.6,12.4-5.4,13.9h-0.8
			c-0.2,0-4.7-9.2-13.3-27.5l-0.3,0.1l0.3,11.2l0.5,5.9l0.7,4.2c0.2,0.7,0.3,1.3,0.5,2c0.3,1,0.7,1.5,1.3,1.5c0.4,0,0.9,0.1,1.3,0.4
			c0.4,0.3,0.7,0.6,0.7,1c0,0.1,0,0.2-0.1,0.2c0,0.1-0.1,0.1-0.1,0.2l-1.4-0.3l-2.5-0.5H347l-2.4,0.5l-1.8,0.7
			c-0.4-0.2-0.6-0.5-0.6-0.8c0-0.3,0.5-0.6,1.6-1c1.1-0.4,1.6-0.9,1.7-1.4l1.2-6.6c-0.1-0.9,0-1.7,0.2-2.3l-0.2-17.2
			c-0.2-0.4-0.6-0.9-1.2-1.5c-0.8-0.8-1.4-1.2-1.9-1.2h-4.3v-0.8c0.5-0.5,1-0.8,1.5-0.8h3.6l7.6,0.6c0.6,0,1.3-0.2,2.1-0.5
			c0.9-0.5,1.4-1.1,1.6-1.8l0.9,0.4c0,0.8-0.4,1.5-1.3,2.1c-0.7,0.5-1.5,0.9-2.4,1c0,0,0,0.1-0.1,0.2c0,0.1-0.1,0.2-0.1,0.3
			c0,0.9,1.7,4.7,5,11.6c3.2,6.7,5.3,10.6,6.1,11.8l8.7-23.1c0.1-0.5-0.5-0.8-1.6-0.9s-1.7-0.4-1.7-0.8c0-0.1,0.2-0.4,0.5-0.8
			c0.3,0,0.8,0.1,1.4,0.3c0.4,0,0.7,0,0.9,0.1c0.2,0.1,0.3,0.2,0.3,0.2h5.6l2.4-0.5c0.2,0,0.3-0.1,0.4-0.3c0.2,0,0.4,0.2,0.6,0.4
			c0.2,0.2,0.3,0.5,0.2,0.8c-0.1,0-0.2,0.1-0.4,0.3c-0.2,0.2-0.3,0.2-0.4,0.2c-0.1,0-0.1,0-0.2-0.1l-1.4,0.1
			c-0.1,0.2-0.3,0.4-0.5,0.8l-0.4,7l0.4,16.7c0.1,0.3,0.2,1.5,0.3,3.3c0.1,1.4,0.6,2.1,1.4,2.2c0.3,0.1,0.7,0.2,1,0.3
			C381.9,455.6,382.1,456,382.1,456.6z M348.2,454.7l-0.3-3.6l-0.4,3.1C347.5,454.6,347.7,454.8,348.2,454.7z M363,452.7l-13.1-27.1
			h-1.3c1.8,3.2,4.2,8.2,7.2,14.8c2.9,6.4,5.1,10.9,6.6,13.4L363,452.7z M376.9,454.7l-0.5-26.9c0-0.6,0-1.4,0-2.3h-0.8l0.3,29.1
			C376.4,454.8,376.8,454.8,376.9,454.7z"/>
		<path stroke="#000000" stroke-width="1.6744" stroke-miterlimit="10" d="M418.2,456.4c0,0.4-0.3,0.6-0.8,0.7l-2.7-0.8l-5.3-0.2
			l-3.5,1c-0.4-0.1-0.5-0.4-0.5-0.8c0-0.2,0.1-0.4,0.4-0.6c0.3-0.2,0.6-0.3,0.9-0.3c1-0.1,1.5-0.5,1.5-1.3v-6.2l-0.5-3.6
			c-0.2-0.3-0.4-0.4-0.5-0.4c-5.1,0-10.2,0-15.1-0.1c-0.5,1.1-0.8,2.9-0.8,5.3c0,0.6,0,1.6,0,3c0.1,1.3,0.1,2.2,0,2.9
			c0.1,0,0.7,0.2,1.9,0.4c0.6,0.1,0.9,0.5,0.9,1c0,0.1,0,0.3,0,0.5c-0.2,0.2-0.3,0.3-0.5,0.3l-3.1-0.8h-4l-3.2,0.8
			c-0.2-0.2-0.3-0.4-0.3-0.6c0-0.3,0.1-0.5,0.4-0.6c0.2-0.1,0.5-0.2,0.8-0.3l0.8-0.1c0,0,0.2-0.1,0.5-0.1c0.2,0,0.3-0.1,0.4-0.3
			c0.7-1.7,1.5-3.9,2.3-6.6c0.6-2.2,1.2-4.4,1.9-6.5l3.2-15.6c0-0.3-0.1-0.4-0.3-0.4c-0.3,0-0.6-0.1-0.8-0.1c-0.8-0.1-1.6-0.5-2.4-1
			c-1-0.6-1.7-1.3-1.9-2c-0.1-0.4,0-0.7,0.2-0.9c0.2-0.2,0.5-0.3,1-0.2c0.2,0.6,0.7,1.2,1.5,1.8c0.9,0.8,2.1,1.2,3.5,1.3l3.4,0.3
			h4.7l7.6-0.5l3.2-0.5c0.3,0.2,0.5,0.4,0.5,0.7c0,0.3-0.4,0.5-1.1,0.7c-0.5,0.2-0.9,0.2-1.2,0.2c-0.2,0-0.4,0-0.7,0
			c-0.1,0-0.2,0-0.2,0l-0.2,0.3c0,3,0.4,6.6,1.2,10.5l2.5,13c0.3,1.1,0.6,2.4,1,4c0.2,0.9,0.6,1.4,0.9,1.5c0.4,0.2,0.8,0.3,1.2,0.4
			C417.8,455.7,418.2,456,418.2,456.4z M389.5,450.7l-1.2,4.1l1.2-0.1V450.7z M407.3,441.8l-2.5-12.2l-1.3-3.6h-8.2
			c-0.2,0.8-0.5,1.8-0.8,3l-2.3,12.8c0,0.3,0.1,0.5,0.2,0.6c3.3,0,8.2,0,14.7,0.2C407.3,442.4,407.3,442.1,407.3,441.8z
			 M412.2,454.6c0.1-0.2,0.1-0.4,0.1-0.7c-0.1-0.2-0.1-0.4-0.2-0.5c-0.7-4.2-1.5-8.5-2.2-12.7c-0.8-4.5-1.5-9.1-2-13.7
			c-0.1-0.4-0.2-0.8-0.5-1l-1,0.2l1.3,6.5l2.7,15.2l0.8,6.7C411.8,454.7,412.1,454.7,412.2,454.6z"/>
		<path stroke="#000000" stroke-width="1.6744" stroke-miterlimit="10" d="M448.2,422.4c0,0.3-0.2,0.5-0.5,0.7
			c-0.5,0.3-0.9,0.5-1.1,0.8c-0.2,0.3-0.4,1.1-0.7,2.5l0.1,2.7l0.7,3.5c-0.1,0.3-0.2,0.5-0.2,0.5c-0.1,0.1-0.4,0.2-0.9,0.2
			c-0.1-0.8-1.2-2.3-3.3-4.4c-2.3-2.3-4-3.4-5.3-3.4h-3.6c-2.2,0.4-4.1,2-5.5,4.6c-0.9,1.7-1.5,3.4-1.8,5.1
			c-0.3,1.5-0.4,2.4-0.5,2.6c0,0.3-0.1,1.1-0.1,2.3c0.2,0.3,0.2,1.4,0.2,3.3c0.2,3.1,1.2,5.8,2.8,8.1c1.9,2.5,4.3,3.8,7.2,4l3.8-0.3
			c0.8-0.2,2-0.6,3.4-1.2c0.6-0.3,1.4-0.9,2.4-1.8c0.9-0.8,1.4-1.2,1.5-1.2c0.1,0,0.3,0.1,0.5,0.3c0.2,0.2,0.3,0.4,0.2,0.5
			c-0.6,1.2-2.2,2.4-4.7,3.6c-2.2,1-3.5,1.5-4.1,1.5c-0.9,0.1-2.9,0.1-5.9,0c-3.1-0.2-6.1-1.7-8.9-4.5c-2.9-2.9-4.5-6.1-4.6-9.6
			v-4.7c0.3-3,1.5-5.8,3.8-8.5c2.3-2.7,4.9-4.4,7.8-5.1c2.5-0.3,4.3-0.5,5.4-0.5c1.8,0,4.6,0.6,8.5,1.8c0.2-1.2,0.4-2,0.6-2.4
			c0.5-0.9,1.3-1.4,2.3-1.5L448.2,422.4z M427.1,428c-1.4,0.9-2.6,2.3-3.5,4.1c-0.8,1.6-1.4,3.2-1.7,5c-0.2,1-0.2,2-0.2,3
			c0,1.4,0.2,3,0.6,4.9c0.3,1.5,0.9,3,1.8,4.5c0.9,1.5,1.9,2.6,2.9,3.1c-1.8-2.1-3-4.6-3.7-7.4c-0.4-3.2-0.6-4.6-0.6-4.3
			c0-0.2,0.1-1.3,0.3-3.2C423.4,434.2,424.7,430.9,427.1,428z M444.7,428.1c-0.1-0.5-0.5-0.9-1.2-1.2c-0.5-0.2-1-0.5-1.5-0.7
			l2.7,2.8C444.8,428.6,444.8,428.3,444.7,428.1z"/>
	</g>
</g>
</svg>
