<?xml version="1.0" encoding="utf-8"?>
<!-- Generator: Adobe Illustrator 17.1.0, SVG Export Plug-In . SVG Version: 6.00 Build 0)  -->
<!DOCTYPE svg PUBLIC "-//W3C//DTD SVG 1.1//EN" "http://www.w3.org/Graphics/SVG/1.1/DTD/svg11.dtd">
<svg version="1.1" id="Layer_1" xmlns="http://www.w3.org/2000/svg" xmlns:xlink="http://www.w3.org/1999/xlink" x="0px" y="0px"
	 viewBox="0 0 792 612" enable-background="new 0 0 792 612" xml:space="preserve">
<g>
	<defs>
		<rect id="SVGID_1_" x="32.823" y="121.815" width="740.209" height="157.215"/>
	</defs>
	<clipPath id="SVGID_2_">
		<use xlink:href="#SVGID_1_"  overflow="visible"/>
	</clipPath>
	<path clip-path="url(#SVGID_2_)" fill="#641B0F" d="M51.954,209.25c-0.053,4.829-4.383,8.715-9.667,8.675
		c-5.284-0.037-9.521-3.983-9.466-8.813c0.058-4.829,4.388-8.715,9.669-8.678C47.77,200.475,52.007,204.421,51.954,209.25"/>
	<path clip-path="url(#SVGID_2_)" fill="#641B0F" d="M753.908,209.71c-0.037,4.829,4.216,8.778,9.489,8.818
		c5.279,0.042,9.595-3.843,9.632-8.673c0.04-4.827-4.216-8.778-9.495-8.818C758.256,200.998,753.945,204.881,753.908,209.71"/>
	<path clip-path="url(#SVGID_2_)" fill="#641B0F" d="M422.512,166.69l0.045,13.113l-19.592,0.122l-19.589,0.122l-0.024-13.113
		c0,0-18.606,0.116-46.514,0.291c-13.954,0.087-30.234,0.188-47.677,0.296c-17.448-0.114-36.06-0.235-54.671-0.354
		c-74.448-0.539-148.894-1.076-148.894-1.076l-0.872,86.766c0,0,79.592,0.576,159.184,1.15c39.787,0.513,79.613,0.04,109.477-0.116
		c29.864-0.185,49.773-0.309,49.773-0.309s79.531-0.46,159.065-0.92c19.727-0.066,39.454-0.13,57.949-0.19
		c18.506-0.042,35.719-0.193,50.643,0.003c29.761,0.23,49.601,0.381,49.601,0.381l0.605-86.769c0,0-18.646-0.143-46.614-0.357
		c-6.997-0.04-14.578-0.082-22.592-0.13c-8.044,0.026-16.523,0.053-25.294,0.082c-17.544,0.058-36.258,0.119-54.973,0.18
		C497.031,166.275,422.512,166.69,422.512,166.69"/>
	
		<path clip-path="url(#SVGID_2_)" fill="none" stroke="#010101" stroke-width="3.3966" stroke-linecap="round" stroke-linejoin="round" d="
		M422.512,166.69l0.045,13.113l-19.592,0.122l-19.589,0.122l-0.024-13.113c0,0-18.606,0.116-46.514,0.291
		c-13.954,0.087-30.234,0.188-47.677,0.296c-17.448-0.114-36.06-0.235-54.671-0.354c-74.448-0.539-148.894-1.076-148.894-1.076
		l-0.872,86.766c0,0,79.592,0.576,159.184,1.15c39.787,0.513,79.613,0.04,109.477-0.116c29.864-0.185,49.773-0.309,49.773-0.309
		s79.531-0.46,159.065-0.92c19.727-0.066,39.454-0.13,57.949-0.19c18.506-0.042,35.719-0.193,50.643,0.003
		c29.761,0.23,49.601,0.381,49.601,0.381l0.605-86.769c0,0-18.646-0.143-46.614-0.357c-6.997-0.04-14.578-0.082-22.592-0.13
		c-8.044,0.026-16.523,0.053-25.294,0.082c-17.544,0.058-36.258,0.119-54.973,0.18C497.031,166.275,422.512,166.69,422.512,166.69z"
		/>
	<path clip-path="url(#SVGID_2_)" fill="#641B0F" d="M383.351,175.08c-17.451,0.108-46.657,0.291-94.204,0.589
		c-47.555-0.336-113.455-0.796-204.281-1.433c0,0-12.799,35.148-42.256,34.936c29.436,0.211,41.547,35.539,41.547,35.539
		s65.128,0.471,137.557,0.994c18.109,0.13,36.673,0.264,54.787,0.394c18.117,0.14,35.801-0.153,52.126-0.198
		c32.653-0.204,59.9-0.373,74.509-0.465c29.163-0.159,108.779-0.597,181.105-0.997c35.983-0.05,70.018-0.407,95.365-0.05
		c25.272,0.193,41.516,0.317,41.516,0.317s12.688-35.143,42.126-34.915c-29.428-0.227-41.634-35.563-41.634-35.563
		c-22.738-0.174-43.913-0.336-63.635-0.486c-19.772,0.056-38.085,0.108-55.039,0.156c-33.876,0.137-62.326,0.254-86.177,0.349
		c-47.545,0.296-76.753,0.478-94.207,0.587"/>
	
		<path clip-path="url(#SVGID_2_)" fill="none" stroke="#010101" stroke-width="1.6996" stroke-linecap="round" stroke-linejoin="round" d="
		M383.351,175.08c-17.451,0.108-46.657,0.291-94.204,0.589c-47.555-0.336-113.455-0.796-204.281-1.433
		c0,0-12.799,35.148-42.256,34.936c29.436,0.211,41.547,35.539,41.547,35.539s65.128,0.471,137.557,0.994
		c18.109,0.13,36.673,0.264,54.787,0.394c18.117,0.14,35.801-0.153,52.126-0.198c32.653-0.204,59.9-0.373,74.509-0.465
		c29.163-0.159,108.779-0.597,181.105-0.997c35.983-0.05,70.018-0.407,95.365-0.05c25.272,0.193,41.516,0.317,41.516,0.317
		s12.688-35.143,42.126-34.915c-29.428-0.227-41.634-35.563-41.634-35.563c-22.738-0.174-43.913-0.336-63.635-0.486
		c-19.772,0.056-38.085,0.108-55.039,0.156c-33.876,0.137-62.326,0.254-86.177,0.349c-47.545,0.296-76.753,0.478-94.207,0.587"/>
	<path clip-path="url(#SVGID_2_)" fill="#641B0F" d="M416.255,134.03c0.024,6.785-13.349,21.395-13.349,21.395
		s-13.446-14.44-13.457-21.226c-0.011-6.799,5.971-12.339,13.37-12.384C410.22,121.767,416.231,127.231,416.255,134.03"/>
	<path clip-path="url(#SVGID_2_)" fill="#641B0F" d="M411.439,166.85c0.013,4.301-3.79,7.808-8.482,7.84
		c-4.697,0.029-8.514-3.434-8.522-7.734c-0.011-4.298,3.788-7.808,8.48-7.837C407.606,159.089,411.426,162.549,411.439,166.85"/>
	<path clip-path="url(#SVGID_2_)" fill="#641B0F" d="M394.294,157.761c0,0-5.747-16.978-27.155-16.843l-15.706,14.496
		C351.433,155.414,375.025,146.726,394.294,157.761"/>
	<path clip-path="url(#SVGID_2_)" fill="#641B0F" d="M411.527,157.653c0,0,5.665-17.049,27.073-17.184l15.775,14.3
		C454.374,154.769,430.743,146.377,411.527,157.653"/>
	<path clip-path="url(#SVGID_2_)" fill="#641B0F" d="M397.812,259.3l-40.738,0.256C357.073,259.556,362.78,277.668,397.812,259.3"/>
	<path clip-path="url(#SVGID_2_)" fill="#641B0F" d="M398.582,259.993c0,0-15.13,13.053-26.512,13.124
		C372.07,273.117,398.63,279.868,398.582,259.993"/>
	<path clip-path="url(#SVGID_2_)" fill="#641B0F" d="M408.528,259.232l40.741-0.256
		C449.269,258.976,443.654,277.159,408.528,259.232"/>
	<path clip-path="url(#SVGID_2_)" fill="#641B0F" d="M407.763,259.936c0,0,15.196,12.862,26.581,12.791
		C434.344,272.727,407.815,279.811,407.763,259.936"/>
	<path clip-path="url(#SVGID_2_)" fill="#641B0F" d="M407.396,269.261c0.016,5.382-1.853,9.754-4.174,9.77
		c-2.321,0.013-4.211-4.335-4.224-9.717c-0.013-5.384,4.174-9.772,4.174-9.772S407.38,263.877,407.396,269.261"/>
</g>
<g>
	<path fill="#78625A" d="M186.626,215.8l-0.316,1.902c-1.777,4.822-4.526,8.988-8.247,12.496c-3.933,3.64-7.825,5.457-11.673,5.457
		h-6.598c-4.06,0-8.416-2.346-13.068-7.042c-4.61-4.566-7.021-8.839-7.232-12.814l-0.445-6.471l0.445-3.807
		c0.337-3.635,2.23-7.494,5.678-11.577c3.446-4.081,7.01-6.564,10.689-7.452c3.045-0.761,5.434-1.144,7.168-1.144
		c1.353,0,2.855,0.15,4.504,0.444c4.568,0.761,8.712,3.152,12.434,7.168c3.593,3.934,5.709,8.165,6.344,12.69
		c0.549,2.199,0.825,4.058,0.825,5.581C187.135,212.46,186.964,213.98,186.626,215.8z M149.135,227.091l-3.616-10.341
		c-0.466-1.394-0.698-3.255-0.698-5.581c0-1.82,0.232-4.695,0.698-8.629c0.719-2.07,1.586-4.355,2.601-6.851
		c0.635-1.564,0.931-2.411,0.888-2.537c-4.272,5.119-6.323,10.129-6.153,15.036l0.253,6.66c0,1.564,0.866,3.955,2.601,7.168
		C147.315,224.936,148.457,226.626,149.135,227.091z M177.492,211.043c0-3.172-0.15-5.392-0.445-6.662
		c-2.417-11.079-7.057-16.789-13.924-17.127l-3.88,0.632c-2.162,0.423-4.195,1.861-6.102,4.313
		c-1.739,2.284-2.798,4.548-3.179,6.789l-0.954,4.44c-0.212,1.864-0.318,3.66-0.318,5.392c0,2.834,0.316,6.007,0.953,9.517
		c-0.043,0.423,0.403,1.817,1.336,4.187c1.102,2.876,2.309,5.245,3.624,7.104c1.78,2.537,3.582,3.807,5.404,3.807l4.769,0.318
		c2.966,0,5.679-1.67,8.138-5.013c2.077-2.832,3.305-5.772,3.687-8.818c0.212-1.479,0.445-2.981,0.7-4.504
		C177.428,214.53,177.492,213.072,177.492,211.043z M182.75,204.698c-1.58-4.99-3.755-8.903-6.527-11.737
		c2.579,4.948,4.208,9.559,4.884,13.831c0.128,1.691,0.254,3.384,0.381,5.075c0,0.297-0.169,1.861-0.507,4.695
		c-0.254,2.029-1.523,5.666-3.806,10.911c1.624-0.382,3.086-2.39,4.39-6.027c1.302-3.637,1.954-7.359,1.954-11.164
		C183.518,208.123,183.262,206.262,182.75,204.698z"/>
	<path fill="#78625A" d="M241.312,234.959c0,0.338-0.128,0.601-0.381,0.792c-0.254,0.191-0.509,0.243-0.761,0.157
		c-1.946-0.547-3.024-0.823-3.236-0.823c-1.438-0.041-2.898-0.085-4.377-0.126l-4.759,0.697c-0.804-0.253-1.205-0.423-1.205-0.509
		l0.698-4.757c-3.975,3.766-7.909,5.71-11.799,5.836c-0.973,0.212-2.39,0.318-4.25,0.318c-0.423,0-0.879,0-1.364,0
		c-0.487,0-0.942,0-1.364,0c-3.722,0-7.825-2.179-12.307-6.533c-4.4-4.187-6.811-8.036-7.233-11.546
		c-0.338-2.79-0.507-4.907-0.507-6.345c0-1.776,0.549-4.948,1.649-9.515c1.776-5.075,5.773-9.982,11.99-14.719
		c-0.085-0.253-0.487-0.338-1.205-0.253c-1.227,0.126-1.713,0.191-1.46,0.191c-1.014,0-2.179-0.403-3.489-1.205
		c-1.438-0.888-2.242-1.776-2.411-2.664c-0.085-0.676-0.126-0.994-0.126-0.953c0-1.1,0.422-1.649,1.269-1.649
		c0.422,0,0.782,0.232,1.078,0.697v1.776c0,0.847,1.079,1.44,3.236,1.779l2.665,0.253l5.328-0.57
		c0.043-0.126,0.085-0.191,0.128-0.191c0.168,0,0.401,0.379,0.697,1.141c-1.413,1.482-2.677,2.981-3.791,4.504
		c-2.657,3.807-4.435,7.783-5.333,11.926c-0.301,1.185-0.579,2.646-0.836,4.378c0,0.676,0,2.94,0,6.789l0.318,2.411
		c-0.043,2.664,1.289,5.963,3.997,9.897c3.045,4.399,6.132,6.598,9.262,6.598c0.635,0,1.575,0.052,2.823,0.157
		c1.247,0.106,2.23,0.157,2.95,0.157c1.649-0.126,3.838-1.076,6.566-2.855c2.728-1.776,4.069-3.211,4.028-4.313l0.063-9.135
		c0.043-3.34-0.063-10.571-0.316-21.696l-0.761-5.836c0-0.676-0.529-1.162-1.586-1.458l-2.664-0.762l0.316-1.458l6.471,0.888
		l4.631-0.191l5.773-1.076c0,0.085,0.084,0.263,0.253,0.537c0.169,0.276,0.254,0.498,0.254,0.666c0,0.297-0.314,0.573-0.938,0.826
		c-0.459,0.212-0.856,0.318-1.189,0.318c-1.043-0.168-1.648,0.444-1.815,1.84l-0.563,7.612l0.191,23.217
		c0.041,1.229,0.19,3.09,0.444,5.583c0.253,2.496,0.381,4.378,0.381,5.645c0,0.973,0.401,1.523,1.205,1.649l1.585,0.191
		c0.423-0.041,0.825,0.116,1.205,0.475C241.121,234.081,241.312,234.494,241.312,234.959z M205.215,233.054
		c-2.411-1.306-4.694-3.562-6.851-6.766c-2.03-3.036-3.258-5.839-3.68-8.41c-0.126-1.897-0.297-3.774-0.507-5.627
		c-0.128-1.309-0.191-2.15-0.191-2.53s0.444-2.656,1.332-6.83l4.187-9.486c-3.468,3.333-5.709,7.654-6.724,12.963l-0.19,1.835
		c-0.126,1.771-0.169,4.153-0.126,7.145c0.422,3.753,1.776,7.316,4.059,10.687C199.018,229.703,201.916,232.044,205.215,233.054z
		 M232.747,188.33c-0.045,0-0.701,0-1.967,0l0.444,18.588v26.136h1.523V188.33z"/>
	<path fill="#78625A" d="M291.617,235.021c0,0.382-0.265,0.676-0.794,0.888s-0.919,0.318-1.173,0.318l-3.806,0.065
		c-3.552-0.55-6.386-2.638-8.5-6.265c-1.649-3.374-3.278-6.75-4.885-10.124c-2.199-3.756-5.117-6.012-8.755-6.771l-3.553-1.456
		c-0.043,1.99,0.022,4.972,0.191,8.944l1.079,11.546c-0.043,0.297,0.168,0.583,0.634,0.857c0.465,0.276,0.866,0.392,1.205,0.348
		c0.634,0.17,1.226,0.328,1.776,0.478c0.55,0.147,0.825,0.475,0.825,0.983c0,0.421-0.444,0.782-1.332,1.076
		c-0.085,0-0.741-0.188-1.967-0.57c-1.354-0.379-2.242-0.612-2.664-0.697l-6.28,0.191l-4.759,1.076l-1.395-0.444
		c-0.126-0.294-0.075-0.601,0.159-0.919c0.232-0.318,0.476-0.496,0.729-0.54c1.354-0.168,2.411-0.591,3.172-1.267l0.57-9.264V208.82
		c0-1.141-0.022-2.759-0.063-4.853c-0.043-2.093-0.063-3.668-0.063-4.726l-0.825-6.913c-0.126-0.676-0.254-1.376-0.381-2.093
		c-0.254-0.932-0.613-1.502-1.079-1.714c-1.692-0.126-3.108-0.718-4.25-1.776c-1.142-1.056-1.713-2.22-1.713-3.49
		c0-1.056,0.359-1.585,1.079-1.585c0.422,0,0.803,0.232,1.141,0.697v1.902c0,0.467,0.403,0.942,1.208,1.427
		c0.804,0.488,1.377,0.731,1.715,0.731c2.415-0.126,4.406-0.106,5.975,0.065l10.804-0.761h4.575c0.551,0,1.779,0.168,3.686,0.506
		c2.796,0.509,5.296,1.967,7.499,4.378c2.286,2.537,3.429,5.266,3.429,8.183l0.187,1.714c0,3.087-1.185,5.795-3.552,8.121
		c-2.115,2.155-4.885,3.678-8.311,4.566c6.175,1.902,10.297,7.909,12.37,18.018c0.128,0.676,0.635,1.363,1.523,2.06
		c0.888,0.7,1.691,1.048,2.411,1.048c0.084,0,0.263-0.075,0.54-0.222c0.274-0.147,0.475-0.222,0.601-0.222
		c0.254,0,0.487,0.147,0.698,0.444S291.617,234.853,291.617,235.021z M257.36,232.739c-0.126-1.696-0.254-3.389-0.381-5.083
		c-0.085-1.273-0.126-5.294-0.126-12.073v-26.936h-2.348l0.444,4.765c0.422,10.336,0.635,19.081,0.635,26.239
		c0.041,4.024,0,7.687-0.128,10.989c0.043,0.679,0.085,1.378,0.128,2.099C256.133,232.78,256.725,232.78,257.36,232.739z
		 M276.075,196.577c-0.296-1.649-1.171-3.34-2.623-5.075c-1.453-1.735-2.96-2.855-4.517-3.361l-5.75-0.256l-2.212,0.509
		l-0.822,6.471v14.781c1.607,0.72,4.018,1.141,7.233,1.267c1.733-0.209,3.446-0.971,5.138-2.282
		c1.691-1.311,2.792-2.834,3.299-4.569l0.126-0.57c0.254-1.438,0.381-2.326,0.381-2.664
		C276.271,199.432,276.187,198.015,276.075,196.577z M283.877,233.183c-1.48-3.384-2.981-6.768-4.503-10.152
		c-1.946-3.764-4.484-6.469-7.614-8.118c2.242,1.988,4.23,4.693,5.964,8.118c1.141,2.455,2.304,4.928,3.489,7.424
		C281.804,231.554,282.693,232.463,283.877,233.183z M281.34,197.72c0-1.523-0.835-3.32-2.505-5.392
		c-1.671-2.073-3.311-3.299-4.917-3.681c2.539,1.988,4.335,4.442,5.392,7.359c0.254,1.396,0.381,2.664,0.381,3.807
		c0,4.693-2.136,8.268-6.407,10.72c1.817-0.382,3.425-1.247,4.822-2.602c1.395-1.353,2.324-2.855,2.79-4.504
		c0.296-1.141,0.465-1.797,0.507-1.964c0.043-0.17,0.065-0.509,0.065-1.017C281.382,199.602,281.34,198.694,281.34,197.72z"/>
	<path fill="#78625A" d="M410.883,235.276l-0.825,0.57l-3.362-0.953c-0.466-0.126-0.995-0.359-1.586-0.697l-5.963,0.188l-6.535,1.27
		c-0.254-0.423-0.381-0.761-0.381-1.014c0-0.338,0.137-0.625,0.413-0.857c0.274-0.232,0.813-0.434,1.617-0.601
		c1.014-0.212,1.733-0.413,2.157-0.604c0.422-0.191,0.613-0.516,0.57-0.983l0.445-2.029v-19.858l-23.093,0.256l0.191,18.08
		c0.422,3.172,0.634,4.504,0.634,3.996c0,0.676,0.465,1.014,1.397,1.014c0.507,0.17,1.289,0.341,2.346,0.509
		c0.381,0.253,0.572,0.594,0.572,1.014c0,0.539-0.191,0.898-0.572,1.079h-1.142l-2.22-0.86l-6.788-0.663h-2.03l-5.012,1.523
		l-0.318-0.126c-0.212-0.423-0.318-0.782-0.318-1.079c0-0.338,0.128-0.57,0.381-0.697c0.128-0.041,0.698,0.085,1.713,0.379
		c0.592,0.17,1.291-0.294,2.093-1.394c0.212-0.297,0.401-0.953,0.572-1.967l0.381-10.214l-0.755-29.247
		c0.124-1.435-0.463-2.494-1.764-3.17c-1.258-0.509-2.496-1.038-3.713-1.588c-1.386-0.761-2.078-1.967-2.078-3.616
		c0-0.421,0.21-0.909,0.634-1.458c-0.043-0.041,0.063-0.062,0.318-0.062c0.422,0,0.825,0.232,1.206,0.697
		c0,0.041,0.041,0.147,0.126,0.318c-0.126,0.253-0.19,0.506-0.19,0.761c0,0.761,0.528,1.458,1.586,2.093
		c0.845,0.55,1.754,0.888,2.727,1.014l4.822,0.379h6.724l1.713-1.014c0.254,0,0.518,0.17,0.792,0.509
		c0.275,0.338,0.413,0.612,0.413,0.823c0,0.17-0.063,0.297-0.191,0.382c-0.126,0.085-0.19,0.147-0.19,0.188
		c-0.507,0.341-0.91,0.509-1.205,0.509c-0.126,0-0.297,0.021-0.507,0.065c-0.213,0.041-0.381,0.062-0.507,0.062h-1.206
		c-0.509,0.761-0.761,1.27-0.761,1.523v17.827c0.084,0.297,0.338,0.444,0.761,0.444c4.609-0.085,12.074-0.168,22.393-0.253
		l0.065-0.191v-15.416c0-2.032-1.079-3.278-3.236-3.743c-0.592-0.041-0.995-0.106-1.206-0.191c-0.339-0.083-0.635-0.253-0.888-0.506
		l0.381-1.523l1.839,0.188c0.126,0,0.275,0.054,0.444,0.16s0.318,0.157,0.444,0.157l12.434-0.379c0.126,0,0.338-0.075,0.635-0.222
		c0.294-0.147,0.507-0.222,0.634-0.222c0.465,0,0.845,0.232,1.142,0.697c0.041-0.083,0.063,0,0.063,0.253
		c0-0.041-0.148,0.191-0.444,0.7c-0.678,0.379-1.248,0.57-1.713,0.57c-1.101-0.041-1.735,0.266-1.904,0.919
		c-0.169,0.658-0.296,1.324-0.381,1.998l-0.316,5.077l0.634,31.908l0.444,4.251c0.465,0.297,0.983,0.539,1.554,0.731
		c0.572,0.188,1.153,0.369,1.745,0.537C410.502,233.839,410.883,234.43,410.883,235.276z M371.233,232.23l-0.381-43.33
		c-0.213-0.209-0.318-0.379-0.318-0.506h-1.205l0.126,43.836C370.07,232.527,370.662,232.527,371.233,232.23z M402.509,231.848
		c-0.121-7.865-0.227-15.731-0.318-23.599c0-1.056,0-7.463,0-19.221c-0.126-0.17-0.444-0.232-0.951-0.191
		c-0.509,0.041-0.825,0.106-0.953,0.191l0.509,11.735l0.253,31.467C401.684,232.145,402.169,232.019,402.509,231.848z"/>
	<path fill="#78625A" d="M431.181,235.465l-4.187-0.95c-3.171-0.129-4.906-0.191-5.201-0.191c-1.82,0.338-3.638,0.676-5.456,1.014
		l-1.46,0.444c-0.339-0.212-0.529-0.506-0.57-0.888c-0.043-0.379-0.085-0.718-0.128-1.014c-0.043-0.297,1.269-0.72,3.934-1.27
		l0.634-7.295l-0.316-30.514l-0.635-5.075c-0.126-0.379-0.254-0.762-0.381-1.141c-0.253-0.509-0.57-0.741-0.951-0.7
		c-0.635-0.168-1.269-0.338-1.904-0.506c-0.888-0.297-1.332-0.741-1.332-1.332c0.169-0.467,0.485-0.741,0.951-0.826l7.042,1.396
		h4.948l4.759-1.079l0.19,1.523c-0.931,0.297-2.305,0.676-4.124,1.141l-0.634,11.482l0.316,22.775l0.953,8.312
		c0.041,0.041,0.147,0.529,0.316,1.458c0.128,0.72,0.529,1.079,1.206,1.079h1.079c0.803,0.041,1.206,0.444,1.206,1.205
		C431.435,234.809,431.35,235.127,431.181,235.465z M423.823,232.421l-0.635-43.71c-0.297-0.382-0.847-0.382-1.649,0l0.57,41.487
		c-0.338,1.735-0.169,2.602,0.509,2.602C422.956,232.801,423.357,232.674,423.823,232.421z"/>
	<path fill="#78625A" d="M469.751,223.394c0,2.922-1.427,5.643-4.282,8.165c-2.854,2.519-6.036,4.097-9.547,4.732h-7.105
		c-1.354,0-4.631-1.185-9.834-3.552c-0.169,0.294-0.296,0.803-0.379,1.52c-0.128,1.27-0.297,2.199-0.509,2.793
		c-0.592,1.732-1.671,3.085-3.234,4.06c-0.043,0.041-0.128,0.062-0.254,0.062c-0.297,0-0.603-0.126-0.92-0.379
		c-0.318-0.256-0.475-0.529-0.475-0.826s0.316-0.656,0.951-1.079c0.888-0.506,1.501-0.994,1.839-1.458
		c0.635-0.847,0.931-1.944,0.888-3.299c0.043-1.438,0-4.27-0.126-8.5l-2.157-5.457c0.254-0.591,0.57-0.888,0.951-0.888
		c0.465,0,0.825,0.235,1.079,0.702c1.437,2.932,3.34,5.524,5.709,7.775c2.623,2.548,5.414,4.226,8.375,5.034
		c1.226,0.552,3.615,0.829,7.168,0.829c1.353,0,2.748-0.976,4.187-2.925c1.142-1.611,1.754-2.734,1.839-3.369
		c0.041-0.423,0.106-0.826,0.191-1.208c0.084-0.212,0.126-1.017,0.126-2.416c0-2.796-2.433-5.38-7.296-7.754
		c-4.525-2.075-9.05-4.151-13.575-6.229c-4.865-2.71-7.296-5.888-7.296-9.533v-3.552c0-2.411,1.153-4.757,3.458-7.042
		c2.305-2.284,4.747-3.616,7.327-3.996c2.284-0.297,3.616-0.444,3.997-0.444c1.817,0.126,3.658,0.274,5.519,0.444
		c0.422,0.041,2.093,0.632,5.012,1.776c0.254,0,0.57-0.529,0.951-1.588c0.509-1.394,0.953-2.367,1.333-2.917
		c0.675-1.014,1.563-1.523,2.664-1.523c0.422,0,0.825,0.465,1.205,1.397c0,0.632-0.657,1.014-1.967,1.141
		c-0.634,0.126-1.069,0.488-1.3,1.079c-0.234,0.591-0.435,1.205-0.603,1.838c-0.254,1.144-0.403,1.967-0.444,2.475
		c0.041-1.311,0.063,0.065,0.063,4.122l2.22,5.901c-0.212,0.594-0.678,0.888-1.395,0.888c-0.254,0-0.635-0.465-1.142-1.396
		c-0.297-0.632-0.592-1.267-0.888-1.902c-2.792-4.272-6.535-7.189-11.229-8.753c-0.931-0.256-1.482-0.382-1.649-0.382
		c-1.016,0.126-2.052,0.256-3.109,0.382c-3.637,1.311-5.456,3.451-5.456,6.415c0,2.966,2.432,5.571,7.296,7.814
		c4.568,2.117,9.135,4.213,13.703,6.288c5.032,3.051,7.739,6.988,8.12,11.815V223.394z M467.34,224.618v-3.681
		c0-3.34-2.474-6.342-7.421-9.006c-4.653-2.199-9.306-4.378-13.957-6.536c-5.034-2.749-7.612-5.857-7.739-9.324l-0.191,1.649
		c-0.043,2.579,1.572,5.054,4.844,7.421c1.784,1.267,4.609,2.77,8.475,4.504c4.417,1.988,7.285,3.384,8.602,4.187
		c4.418,2.749,6.628,5.54,6.628,8.374v3.234C466.748,225.274,467.002,224.997,467.34,224.618z M444.567,232.739l-5.773-5.204
		c-0.043-0.168-0.063,0.341-0.063,1.523c0.338,0.72,1.078,1.376,2.22,1.967C441.288,231.237,442.494,231.807,444.567,232.739z
		 M461.632,191.946v-1.079c0.041-0.718-0.698-1.332-2.221-1.838c-1.1-0.338-2.179-0.676-3.234-1.017L461.632,191.946z"/>
	<path fill="#78625A" d="M517.395,182.367c-0.381,1.185-1.185,2.855-2.411,5.013c-1.101,1.902-1.776,3.487-2.03,4.757
		c-0.085,0.55-0.339,1.458-0.762,2.728c-0.55,1.735-0.973,2.599-1.269,2.599c-0.253,0-0.518-0.116-0.792-0.351
		c-0.276-0.232-0.435-0.436-0.476-0.607l1.142-3.833c-0.507-0.767-1.629-1.66-3.362-2.682c-1.735-1.022-3.003-1.536-3.806-1.536
		h-3.743c-0.55,0-0.931,0.129-1.142,0.382l-0.318,6.399l-0.19,21.286l1.014,14.128c-0.126,0.676,0.021,1.28,0.444,1.807
		c0.423,0.529,1.057,0.772,1.904,0.728c0.338,0.126,0.676,0.253,1.014,0.379c0.592,0.297,0.888,0.697,0.888,1.205
		c0,0.083-0.148,0.284-0.444,0.601c-0.296,0.315-0.57,0.496-0.825,0.537l-3.869-1.076h-7.739l-4.568,1.076
		c-0.509-0.212-0.762-0.632-0.762-1.267c0-0.506,0.75-0.994,2.252-1.458c1.5-0.462,2.273-1.203,2.315-2.217l0.507-4.623
		l-0.507-33.64c-0.085-0.888-0.423-2.303-1.016-4.246l-3.108,0.253c-3.553,0.965-5.879,1.701-6.979,2.204
		c-2.707,1.342-4.335,3.149-4.885,5.413c-0.085,0.338-0.359,0.503-0.825,0.503c-0.719,0-1.014-0.444-0.888-1.332l3.362-9.515
		l0.635-3.616c0.041-0.083,0.296-0.212,0.761-0.379l0.951,0.379v1.649c0,0.467,0.485,0.867,1.46,1.205
		c0.76,0.253,1.416,0.382,1.966,0.382l12.054,0.759l10.658-0.506l8.881-1.249c0.634,0,1.216-0.333,1.745-0.999
		c0.528-0.669,1.047-1.314,1.554-1.939L517.395,182.367z M480.854,187.442l-4.06,0.067l-0.507,1.773L480.854,187.442z
		 M495.445,232.104l-0.761-43.648c-0.253,0.044-0.804,0.108-1.649,0.191l0.635,9.628v33.955c0.254,0.126,0.485,0.191,0.698,0.191
		C494.661,232.421,495.021,232.316,495.445,232.104z M512.383,187.95l-3.743-0.382c0.253,0.341,0.74,0.71,1.458,1.11
		c0.719,0.403,1.226,0.604,1.523,0.604c0.168,0,0.348-0.168,0.54-0.509C512.351,188.435,512.425,188.162,512.383,187.95z"/>
	<path fill="#78625A" d="M563.704,215.8l-0.316,1.902c-1.777,4.822-4.526,8.988-8.247,12.496c-3.933,3.64-7.825,5.457-11.673,5.457
		h-6.598c-4.06,0-8.416-2.346-13.068-7.042c-4.61-4.566-7.021-8.839-7.232-12.814l-0.445-6.471l0.445-3.807
		c0.337-3.635,2.23-7.494,5.678-11.577c3.446-4.081,7.01-6.564,10.689-7.452c3.045-0.761,5.434-1.144,7.168-1.144
		c1.353,0,2.855,0.15,4.504,0.444c4.568,0.761,8.712,3.152,12.434,7.168c3.593,3.934,5.709,8.165,6.344,12.69
		c0.549,2.199,0.825,4.058,0.825,5.581C564.213,212.46,564.043,213.98,563.704,215.8z M526.213,227.091l-3.616-10.341
		c-0.466-1.394-0.698-3.255-0.698-5.581c0-1.82,0.232-4.695,0.698-8.629c0.719-2.07,1.586-4.355,2.601-6.851
		c0.635-1.564,0.931-2.411,0.888-2.537c-4.272,5.119-6.323,10.129-6.153,15.036l0.253,6.66c0,1.564,0.866,3.955,2.601,7.168
		C524.393,224.936,525.535,226.626,526.213,227.091z M554.57,211.043c0-3.172-0.15-5.392-0.445-6.662
		c-2.417-11.079-7.057-16.789-13.924-17.127l-3.88,0.632c-2.162,0.423-4.195,1.861-6.102,4.313
		c-1.739,2.284-2.798,4.548-3.179,6.789l-0.954,4.44c-0.212,1.864-0.318,3.66-0.318,5.392c0,2.834,0.316,6.007,0.953,9.517
		c-0.043,0.423,0.403,1.817,1.336,4.187c1.102,2.876,2.309,5.245,3.624,7.104c1.78,2.537,3.582,3.807,5.404,3.807l4.769,0.318
		c2.966,0,5.679-1.67,8.138-5.013c2.077-2.832,3.305-5.772,3.687-8.818c0.212-1.479,0.445-2.981,0.7-4.504
		C554.506,214.53,554.57,213.072,554.57,211.043z M559.828,204.698c-1.58-4.99-3.755-8.903-6.527-11.737
		c2.579,4.948,4.208,9.559,4.884,13.831c0.128,1.691,0.254,3.384,0.381,5.075c0,0.297-0.169,1.861-0.507,4.695
		c-0.254,2.029-1.523,5.666-3.806,10.911c1.624-0.382,3.086-2.39,4.39-6.027c1.302-3.637,1.954-7.359,1.954-11.164
		C560.596,208.123,560.34,206.262,559.828,204.698z"/>
	<path fill="#78625A" d="M610.522,235.021c0,0.382-0.266,0.676-0.795,0.888s-0.919,0.318-1.172,0.318l-3.807,0.065
		c-3.552-0.55-6.386-2.638-8.5-6.265c-1.649-3.374-3.278-6.75-4.884-10.124c-2.199-3.756-5.119-6.012-8.756-6.771l-3.552-1.456
		c-0.044,1.99,0.021,4.972,0.191,8.944l1.079,11.546c-0.044,0.297,0.168,0.583,0.632,0.857c0.465,0.276,0.867,0.392,1.206,0.348
		c0.635,0.17,1.226,0.328,1.776,0.478c0.55,0.147,0.826,0.475,0.826,0.983c0,0.421-0.444,0.782-1.332,1.076
		c-0.085,0-0.741-0.188-1.967-0.57c-1.355-0.379-2.243-0.612-2.664-0.697l-6.28,0.191l-4.759,1.076l-1.395-0.444
		c-0.126-0.294-0.075-0.601,0.159-0.919c0.232-0.318,0.476-0.496,0.729-0.54c1.354-0.168,2.411-0.591,3.172-1.267l0.57-9.264V208.82
		c0-1.141-0.023-2.759-0.065-4.853c-0.041-2.093-0.062-3.668-0.062-4.726l-0.826-6.913c-0.126-0.676-0.253-1.376-0.379-2.093
		c-0.254-0.932-0.613-1.502-1.079-1.714c-1.692-0.126-3.108-0.718-4.25-1.776c-1.142-1.056-1.713-2.22-1.713-3.49
		c0-1.056,0.359-1.585,1.079-1.585c0.422,0,0.803,0.232,1.141,0.697v1.902c0,0.467,0.403,0.942,1.208,1.427
		c0.804,0.488,1.377,0.731,1.715,0.731c2.415-0.126,4.405-0.106,5.974,0.065l10.803-0.761h4.577c0.55,0,1.779,0.168,3.686,0.506
		c2.796,0.509,5.294,1.967,7.499,4.378c2.284,2.537,3.428,5.266,3.428,8.183l0.188,1.714c0,3.087-1.185,5.795-3.552,8.121
		c-2.117,2.155-4.886,3.678-8.312,4.566c6.175,1.902,10.297,7.909,12.37,18.018c0.129,0.676,0.635,1.363,1.523,2.06
		c0.888,0.7,1.691,1.048,2.411,1.048c0.085,0,0.263-0.075,0.54-0.222c0.274-0.147,0.475-0.222,0.601-0.222
		c0.256,0,0.488,0.147,0.7,0.444S610.522,234.853,610.522,235.021z M576.265,232.739c-0.126-1.696-0.256-3.389-0.382-5.083
		c-0.085-1.273-0.126-5.294-0.126-12.073v-26.936h-2.346l0.444,4.765c0.421,10.336,0.635,19.081,0.635,26.239
		c0.041,4.024,0,7.687-0.129,10.989c0.044,0.679,0.085,1.378,0.129,2.099C575.036,232.78,575.63,232.78,576.265,232.739z
		 M594.98,196.577c-0.297-1.649-1.172-3.34-2.623-5.075c-1.453-1.735-2.961-2.855-4.517-3.361l-5.751-0.256l-2.212,0.509
		l-0.821,6.471v14.781c1.606,0.72,4.017,1.141,7.233,1.267c1.732-0.209,3.446-0.971,5.137-2.282s2.793-2.834,3.299-4.569l0.126-0.57
		c0.256-1.438,0.382-2.326,0.382-2.664C595.176,199.432,595.091,198.015,594.98,196.577z M602.781,233.183
		c-1.479-3.384-2.981-6.768-4.502-10.152c-1.946-3.764-4.484-6.469-7.615-8.118c2.243,1.988,4.231,4.693,5.965,8.118
		c1.141,2.455,2.303,4.928,3.487,7.424C600.708,231.554,601.598,232.463,602.781,233.183z M600.243,197.72
		c0-1.523-0.834-3.32-2.504-5.392c-1.673-2.073-3.312-3.299-4.917-3.681c2.537,1.988,4.334,4.442,5.392,7.359
		c0.253,1.396,0.379,2.664,0.379,3.807c0,4.693-2.135,8.268-6.407,10.72c1.817-0.382,3.425-1.247,4.822-2.602
		c1.396-1.353,2.326-2.855,2.79-4.504c0.297-1.141,0.465-1.797,0.509-1.964c0.041-0.17,0.065-0.509,0.065-1.017
		C600.287,199.602,600.243,198.694,600.243,197.72z"/>
	<path fill="#78625A" d="M669.963,187.062c-0.423,0.379-1.123,0.625-2.099,0.728c-0.976,0.106-1.613,0.266-1.908,0.478
		c-2.801,2.282-5.896,5.898-9.288,10.847c-0.341,0.509-3.586,5.669-9.734,15.48v11.926c0.212,1.861,0.612,4.019,1.206,6.471
		c0.041,0.085,0.761,0.318,2.158,0.697c1.182,0.297,1.776,0.805,1.776,1.523c0,0.212-0.276,0.465-0.826,0.761l-3.743-0.888
		l-2.473-0.444l-6.915,0.599l-2.919,0.733c-0.212-0.382-0.379-0.805-0.506-1.27c0-0.126,0.147-0.276,0.444-0.444
		c0.294-0.17,0.529-0.232,0.697-0.191c0.256-0.126,0.676-0.253,1.27-0.382c0.421-0.085,0.865-0.348,1.332-0.792
		c0.465-0.444,0.697-0.963,0.697-1.557v-17.021c-3.425-4.868-6.851-9.719-10.276-14.546c-4.019-5.462-7.359-9.166-10.023-11.115
		c-1.058-0.465-2.093-0.929-3.108-1.396c-1.905-1.014-2.855-2.052-2.855-3.113v-1.905c0.041,0,0.199-0.116,0.475-0.348
		c0.274-0.232,0.475-0.348,0.604-0.348c0.803,0,1.226,0.612,1.267,1.838c0.085,1.482,1.373,2.496,3.869,3.046
		c0.676,0.126,2.37,0.297,5.075,0.509c2.284,0.168,4.334,0.062,6.154-0.318l4.631-0.953c0.55,0.297,0.826,0.676,0.826,1.141
		c0,0.509-0.17,0.805-0.508,0.891c-0.338,0.085-0.697,0.147-1.079,0.188c-0.591,0.126-1.373,0.382-2.346,0.761
		c1.182,3.258,3.49,7.233,6.915,11.926c2.452,3.343,4.925,6.704,7.421,10.088c4.737-6.175,7.824-11.841,9.262-17.001l0.953-3.616
		c-0.085-0.465-0.15-0.929-0.191-1.397c-0.041-0.041-0.444-0.126-1.206-0.253l-2.728-1.141v-1.396c-0.338,0,0.256,0,1.779,0
		c0.126,0,0.643,0.191,1.554,0.57c0.909,0.379,2.633,0.57,5.17,0.57l8.056-1.332c0.379,0,0.635,0.15,0.762,0.444
		C669.71,186.406,669.836,186.724,669.963,187.062z M644.144,232.61c-0.297-2.747-0.444-4.566-0.444-5.454c0-4.525,0-9.05,0-13.575
		c-1.649-2.793-4.442-7.001-8.374-12.625c-3.64-5.201-6.239-9.221-7.803-12.055c0-0.041-0.785,0.065-2.349,0.318l17.13,24.234v19.35
		c0.041,0,0.137,0.031,0.287,0.096c0.147,0.065,0.305,0.096,0.475,0.096C643.359,232.992,643.721,232.865,644.144,232.61z
		 M661.398,188.9c-0.338,0.044-0.803-0.062-1.394-0.315c-0.127,0-0.235,0.106-0.318,0.315c-0.297,1.144-0.762,2.602-1.397,4.378
		L661.398,188.9z"/>
</g>
</svg>
