<?xml version="1.0" encoding="utf-8"?>
<!-- Generator: Adobe Illustrator 17.1.0, SVG Export Plug-In . SVG Version: 6.00 Build 0)  -->
<!DOCTYPE svg PUBLIC "-//W3C//DTD SVG 1.1//EN" "http://www.w3.org/Graphics/SVG/1.1/DTD/svg11.dtd">
<svg version="1.1" id="Layer_1" xmlns="http://www.w3.org/2000/svg" xmlns:xlink="http://www.w3.org/1999/xlink" x="0px" y="0px"
	 viewBox="0 0 792 612" enable-background="new 0 0 792 612" xml:space="preserve">
<g>
	<defs>
		<rect id="SVGID_1_" x="78.986" y="80.427" width="656.043" height="139.339"/>
	</defs>
	<clipPath id="SVGID_2_">
		<use xlink:href="#SVGID_1_"  overflow="visible"/>
	</clipPath>
	<path clip-path="url(#SVGID_2_)" fill="#641B0F" d="M95.942,157.92c-0.047,4.28-3.884,7.724-8.567,7.689
		c-4.683-0.033-8.439-3.531-8.389-7.811c0.052-4.28,3.889-7.724,8.57-7.691C92.234,150.142,95.989,153.64,95.942,157.92"/>
	<path clip-path="url(#SVGID_2_)" fill="#641B0F" d="M718.081,158.328c-0.033,4.28,3.737,7.78,8.41,7.815
		c4.678,0.037,8.504-3.406,8.537-7.687c0.035-4.278-3.737-7.78-8.415-7.815C721.935,150.606,718.114,154.048,718.081,158.328"/>
	<path clip-path="url(#SVGID_2_)" fill="#641B0F" d="M424.366,120.199l0.04,11.622l-17.364,0.108l-17.362,0.108l-0.021-11.622
		c0,0-16.491,0.103-41.225,0.258c-12.367,0.077-26.796,0.166-42.256,0.262c-15.464-0.101-31.96-0.209-48.455-0.314
		c-65.983-0.478-131.964-0.953-131.964-0.953l-0.773,76.9c0,0,70.542,0.511,141.084,1.019c35.263,0.454,70.561,0.035,97.029-0.103
		c26.468-0.164,44.114-0.274,44.114-0.274s70.488-0.408,140.979-0.815c17.484-0.059,34.968-0.115,51.36-0.169
		c16.401-0.037,31.657-0.171,44.884,0.002c26.377,0.204,43.961,0.337,43.961,0.337l0.536-76.903c0,0-16.526-0.127-41.314-0.316
		c-6.201-0.035-12.92-0.073-20.023-0.115c-7.129,0.023-14.644,0.047-22.418,0.073c-15.549,0.052-32.135,0.105-48.722,0.159
		C490.412,119.832,424.366,120.199,424.366,120.199"/>
	
		<path clip-path="url(#SVGID_2_)" fill="none" stroke="#000000" stroke-width="3.0104" stroke-linecap="round" stroke-linejoin="round" d="
		M424.366,120.199l0.04,11.622l-17.364,0.108l-17.362,0.108l-0.021-11.622c0,0-16.491,0.103-41.225,0.258
		c-12.367,0.077-26.796,0.166-42.256,0.262c-15.464-0.101-31.96-0.209-48.455-0.314c-65.983-0.478-131.964-0.953-131.964-0.953
		l-0.773,76.9c0,0,70.542,0.511,141.084,1.019c35.263,0.454,70.561,0.035,97.029-0.103c26.468-0.164,44.114-0.274,44.114-0.274
		s70.488-0.408,140.979-0.815c17.484-0.059,34.968-0.115,51.36-0.169c16.401-0.037,31.657-0.171,44.884,0.002
		c26.377,0.204,43.961,0.337,43.961,0.337l0.536-76.903c0,0-16.526-0.127-41.314-0.316c-6.201-0.035-12.92-0.073-20.023-0.115
		c-7.129,0.023-14.644,0.047-22.418,0.073c-15.549,0.052-32.135,0.105-48.722,0.159
		C490.412,119.832,424.366,120.199,424.366,120.199z"/>
	<path clip-path="url(#SVGID_2_)" fill="#641B0F" d="M389.658,127.636c-15.467,0.096-41.352,0.258-83.493,0.522
		c-42.148-0.298-100.555-0.705-181.054-1.27c0,0-11.344,31.151-37.451,30.964c26.089,0.187,36.823,31.498,36.823,31.498
		s57.723,0.417,121.916,0.881c16.05,0.115,32.503,0.234,48.558,0.349c16.057,0.124,31.73-0.136,46.199-0.176
		c28.94-0.18,53.089-0.33,66.037-0.412c25.847-0.141,96.411-0.529,160.513-0.883c31.892-0.045,62.057-0.361,84.521-0.045
		c22.399,0.171,36.795,0.281,36.795,0.281s11.245-31.147,37.336-30.945c-26.082-0.201-36.9-31.519-36.9-31.519
		c-20.152-0.155-38.92-0.298-56.399-0.431c-17.524,0.049-33.754,0.096-48.78,0.138c-30.025,0.122-55.239,0.225-76.378,0.309
		c-42.139,0.262-68.026,0.424-83.495,0.52"/>
	
		<path clip-path="url(#SVGID_2_)" fill="none" stroke="#000000" stroke-width="1.5064" stroke-linecap="round" stroke-linejoin="round" d="
		M389.658,127.636c-15.467,0.096-41.352,0.258-83.493,0.522c-42.148-0.298-100.555-0.705-181.054-1.27
		c0,0-11.344,31.151-37.451,30.964c26.089,0.187,36.823,31.498,36.823,31.498s57.723,0.417,121.916,0.881
		c16.05,0.115,32.503,0.234,48.558,0.349c16.057,0.124,31.73-0.136,46.199-0.176c28.94-0.18,53.089-0.33,66.037-0.412
		c25.847-0.141,96.411-0.529,160.513-0.883c31.892-0.045,62.057-0.361,84.521-0.045c22.399,0.171,36.795,0.281,36.795,0.281
		s11.245-31.147,37.336-30.945c-26.082-0.201-36.9-31.519-36.9-31.519c-20.152-0.155-38.92-0.298-56.399-0.431
		c-17.524,0.049-33.754,0.096-48.78,0.138c-30.025,0.122-55.239,0.225-76.378,0.309c-42.139,0.262-68.026,0.424-83.495,0.52"/>
	<path clip-path="url(#SVGID_2_)" fill="#641B0F" d="M418.82,91.252c0.021,6.014-11.831,18.962-11.831,18.962
		s-11.918-12.798-11.927-18.812c-0.009-6.026,5.292-10.936,11.85-10.976C413.472,80.385,418.799,85.227,418.82,91.252"/>
	<path clip-path="url(#SVGID_2_)" fill="#641B0F" d="M414.552,120.341c0.012,3.812-3.359,6.92-7.518,6.949
		c-4.163,0.026-7.546-3.043-7.553-6.855c-0.009-3.809,3.357-6.92,7.516-6.946C411.155,113.463,414.54,116.529,414.552,120.341"/>
	<path clip-path="url(#SVGID_2_)" fill="#641B0F" d="M399.357,112.286c0,0-5.093-15.047-24.067-14.928l-13.921,12.848
		C361.369,110.205,382.278,102.505,399.357,112.286"/>
	<path clip-path="url(#SVGID_2_)" fill="#641B0F" d="M414.63,112.19c0,0,5.02-15.111,23.994-15.23l13.981,12.674
		C452.606,109.634,431.661,102.196,414.63,112.19"/>
	<path clip-path="url(#SVGID_2_)" fill="#641B0F" d="M402.474,202.279l-36.106,0.227
		C366.368,202.506,371.426,218.559,402.474,202.279"/>
	<path clip-path="url(#SVGID_2_)" fill="#641B0F" d="M403.157,202.894c0,0-13.41,11.568-23.498,11.632
		C379.659,214.525,403.199,220.509,403.157,202.894"/>
	<path clip-path="url(#SVGID_2_)" fill="#641B0F" d="M411.972,202.219l36.109-0.227
		C448.081,201.992,443.105,218.108,411.972,202.219"/>
	<path clip-path="url(#SVGID_2_)" fill="#641B0F" d="M411.294,202.843c0,0,13.468,11.4,23.559,11.337
		C434.852,214.179,411.341,220.458,411.294,202.843"/>
	<path clip-path="url(#SVGID_2_)" fill="#641B0F" d="M410.969,211.108c0.014,4.77-1.642,8.645-3.699,8.659
		c-2.057,0.012-3.732-3.842-3.744-8.612c-0.012-4.772,3.699-8.661,3.699-8.661S410.955,206.336,410.969,211.108"/>
</g>
<g>
	<path fill="#78625A" d="M274.102,132.429c-0.337,1.05-1.05,2.53-2.136,4.442c-0.975,1.687-1.574,3.092-1.799,4.217
		c-0.076,0.488-0.3,1.293-0.675,2.417c-0.487,1.538-0.863,2.306-1.125,2.306c-0.225,0-0.459-0.104-0.703-0.311
		c-0.244-0.208-0.385-0.388-0.422-0.539l1.012-3.397c-0.45-0.679-1.443-1.472-2.98-2.378c-1.538-0.906-2.662-1.359-3.374-1.359
		h-3.317c-0.488,0-0.825,0.113-1.012,0.336l-0.281,5.672l-0.169,18.866l0.899,12.522c-0.112,0.599,0.019,1.133,0.394,1.601
		c0.374,0.468,0.937,0.684,1.687,0.646c0.3,0.112,0.599,0.225,0.899,0.337c0.525,0.263,0.788,0.618,0.788,1.067
		c0,0.074-0.132,0.252-0.394,0.533c-0.262,0.28-0.506,0.439-0.73,0.477l-3.43-0.955h-6.859l-4.048,0.955
		c-0.45-0.188-0.675-0.562-0.675-1.124c0-0.449,0.665-0.88,1.996-1.292c1.33-0.411,2.015-1.066,2.052-1.965l0.45-4.099l-0.45-29.815
		c-0.075-0.786-0.375-2.04-0.899-3.762l-2.755,0.223c-3.148,0.856-5.21,1.507-6.185,1.953c-2.399,1.191-3.843,2.791-4.33,4.799
		c-0.075,0.298-0.319,0.446-0.731,0.446c-0.638,0-0.899-0.394-0.787-1.181l2.98-8.434l0.562-3.205
		c0.037-0.075,0.262-0.187,0.675-0.337l0.843,0.337v1.462c0,0.413,0.43,0.769,1.293,1.068c0.675,0.225,1.255,0.337,1.743,0.337
		l10.683,0.674l9.446-0.45l7.872-1.108c0.562,0,1.077-0.295,1.546-0.885c0.468-0.59,0.928-1.163,1.378-1.718L274.102,132.429z
		 M241.716,136.927l-3.599,0.058l-0.45,1.572L241.716,136.927z M254.647,176.51l-0.674-38.684c-0.225,0.038-0.713,0.094-1.462,0.169
		l0.562,8.534v30.093c0.225,0.112,0.431,0.169,0.619,0.169C253.954,176.791,254.272,176.697,254.647,176.51z M269.66,137.376
		l-3.317-0.337c0.225,0.301,0.655,0.628,1.293,0.984c0.637,0.357,1.087,0.534,1.35,0.534c0.149,0,0.309-0.149,0.478-0.45
		C269.632,137.808,269.697,137.564,269.66,137.376z"/>
	<path fill="#78625A" d="M322.287,179.321l-0.73,0.506l-2.98-0.844c-0.414-0.112-0.881-0.318-1.406-0.618l-5.285,0.168l-5.791,1.125
		c-0.225-0.374-0.338-0.675-0.338-0.899c0-0.3,0.121-0.553,0.365-0.759s0.723-0.385,1.434-0.534c0.9-0.188,1.537-0.366,1.912-0.534
		c0.375-0.169,0.543-0.459,0.506-0.872l0.395-1.799v-17.599l-20.466,0.225l0.168,16.024c0.375,2.812,0.562,3.992,0.562,3.542
		c0,0.601,0.412,0.899,1.237,0.899c0.45,0.15,1.143,0.301,2.081,0.45c0.337,0.225,0.506,0.525,0.506,0.899
		c0,0.479-0.169,0.797-0.506,0.956h-1.012l-1.968-0.763l-6.017-0.587h-1.799l-4.442,1.35l-0.281-0.112
		c-0.188-0.374-0.281-0.693-0.281-0.956c0-0.3,0.113-0.506,0.337-0.618c0.113-0.037,0.619,0.075,1.518,0.337
		c0.524,0.15,1.143-0.262,1.855-1.236c0.187-0.263,0.356-0.844,0.506-1.743l0.337-9.053l-0.669-25.92
		c0.111-1.274-0.41-2.211-1.562-2.811c-1.116-0.45-2.213-0.918-3.292-1.406c-1.228-0.675-1.841-1.743-1.841-3.205
		c0-0.374,0.187-0.806,0.562-1.293c-0.038-0.037,0.056-0.056,0.281-0.056c0.375,0,0.731,0.206,1.068,0.618
		c0,0.038,0.037,0.132,0.112,0.281c-0.112,0.225-0.168,0.45-0.168,0.675c0,0.675,0.468,1.293,1.406,1.855
		c0.749,0.487,1.555,0.787,2.417,0.899l4.273,0.337h5.96l1.518-0.899c0.225,0,0.459,0.15,0.703,0.45
		c0.243,0.3,0.365,0.544,0.365,0.731c0,0.15-0.056,0.263-0.168,0.337c-0.113,0.075-0.169,0.132-0.169,0.168
		c-0.45,0.301-0.806,0.45-1.068,0.45c-0.112,0-0.263,0.02-0.45,0.057c-0.188,0.038-0.337,0.056-0.45,0.056h-1.068
		c-0.45,0.674-0.675,1.125-0.675,1.349v15.799c0.075,0.263,0.3,0.394,0.675,0.394c4.085-0.075,10.701-0.149,19.848-0.225
		l0.057-0.169v-13.663c0-1.799-0.957-2.904-2.867-3.317c-0.525-0.037-0.881-0.093-1.068-0.168c-0.301-0.075-0.562-0.225-0.787-0.45
		l0.336-1.349l1.631,0.168c0.113,0,0.244,0.047,0.395,0.141c0.148,0.094,0.281,0.141,0.393,0.141l11.021-0.337
		c0.111,0,0.299-0.065,0.562-0.197c0.262-0.131,0.449-0.197,0.561-0.197c0.412,0,0.75,0.207,1.014,0.619
		c0.035-0.075,0.055,0,0.055,0.225c0-0.037-0.131,0.169-0.393,0.619c-0.6,0.337-1.105,0.506-1.518,0.506
		c-0.977-0.037-1.539,0.235-1.688,0.815c-0.15,0.582-0.264,1.172-0.338,1.771l-0.281,4.498l0.562,28.281l0.395,3.768
		c0.412,0.263,0.871,0.478,1.377,0.646s1.021,0.329,1.547,0.478C321.949,178.047,322.287,178.571,322.287,179.321z M287.146,176.622
		l-0.337-38.402c-0.188-0.187-0.281-0.337-0.281-0.45h-1.068l0.112,38.852C286.115,176.885,286.64,176.885,287.146,176.622z
		 M314.865,176.284c-0.107-6.972-0.201-13.943-0.281-20.916c0-0.937,0-6.615,0-17.036c-0.113-0.149-0.395-0.206-0.844-0.169
		c-0.449,0.038-0.73,0.094-0.844,0.169l0.451,10.401l0.225,27.888C314.135,176.547,314.564,176.435,314.865,176.284z"/>
	<path fill="#78625A" d="M362.655,168.245l-1.518,3.261l-0.281,1.124c0,0.675-0.038,1.5-0.112,2.474
		c-0.038,0.713-0.038,1.257,0,1.631c0.037,0.525,0.169,1.106,0.394,1.743l0.562,3.767c0-0.263-0.132-0.019-0.394,0.731l-0.45,0.225
		c-0.301,0-0.525-0.112-0.675-0.337c-0.112-0.525-0.281-1.312-0.506-2.361c-0.713-0.338-1.481-0.562-2.306-0.675
		c-2.023-0.637-4.349-1.049-6.972-1.237l-5.004-0.394l-13.101,0.225c-0.188,0-0.863,0.15-2.024,0.45
		c-1.162,0.301-1.818,0.487-1.968,0.562c-0.713,0.337-1.219,0.73-1.518,1.181c-0.15,0.599-0.45,1.48-0.9,2.643
		c-0.487,0.149-0.675,0.225-0.562,0.225c-0.263,0-0.488-0.169-0.675-0.506c-0.188-0.225-0.281-0.432-0.281-0.618
		c0-0.376,0.112-0.787,0.337-1.237c0.412-0.787,0.824-1.536,1.237-2.249c0.262-0.037,0.861-0.31,1.799-0.815
		c0.937-0.506,1.8-0.796,2.587-0.871c0.187-0.3,0.355-0.844,0.506-1.631l0.562-13.606l-0.394-14.169l-0.844-9.502
		c-0.112-0.149-0.375-0.281-0.787-0.394l-0.844-0.168c-1.349-0.524-2.174-0.88-2.474-1.068c-1.012-0.562-1.687-1.237-2.024-2.024
		c-0.225-0.524-0.337-0.993-0.337-1.406c0-0.375,0.112-0.711,0.337-1.012c0.113-0.037,0.3-0.187,0.562-0.45
		c0.45,0.263,0.787,0.712,1.012,1.35c0.338,0.787,0.684,1.396,1.041,1.827c0.355,0.431,1.227,0.853,2.614,1.265
		c1.199,0.112,2.773,0.168,4.723,0.168c2.999,0,6.841-0.152,11.526-0.456c2.511-0.19,5.022-0.38,7.534-0.569l3.768-0.512
		l0.787-0.855c0-0.113,0.149-0.777,0.449-1.993l1.406,0.282l-0.844,5.249v6.038l1.405,2.878c0,0.151-0.075,0.377-0.225,0.677
		c-0.263,0.226-0.525,0.338-0.787,0.338c-0.45,0-0.899-0.394-1.35-1.181c-0.413-0.675-0.618-1.162-0.618-1.462v-3.542l-3.936-1.574
		l-6.804-1.349l-7.365-0.45c-0.45,0.75-0.713,1.594-0.787,2.53c-0.038,1.088-0.095,2.193-0.169,3.317l-0.112,10.739
		c0,0.075,0.074,0.15,0.225,0.225c0.937,0.076,1.817,0.113,2.643,0.113c0.338,0,2.137-0.169,5.397-0.506l2.587-0.281
		c0.149,0,0.787-0.271,1.911-0.815c1.125-0.543,1.688-0.909,1.688-1.097v-1.518c0-0.149,0.08-0.318,0.242-0.506
		c0.161-0.187,0.315-0.281,0.459-0.281c0.323,0,0.522,0.047,0.595,0.141c0.072,0.094,0.09,0.216,0.053,0.366v0.394v9.277
		l1.575,3.655c-0.076,0.112-0.169,0.207-0.281,0.281c-0.226,0.15-0.638,0.207-1.237,0.168c-0.787-0.862-1.312-2.136-1.574-3.823
		c-0.038-1.086-0.562-1.817-1.574-2.193c-0.825-0.225-1.631-0.45-2.418-0.674c-3.148-0.675-6.261-1.012-9.333-1.012
		c-0.15,0-0.329,0.094-0.534,0.281c-0.207,0.188-0.31,0.356-0.31,0.506l0.73,15.687c0.037,0.787,0.094,1.575,0.169,2.362
		c0.149,0.899,0.524,1.349,1.125,1.349l9.614-0.562c1.762-0.375,3.551-0.778,5.369-1.209s3.308-1.077,4.471-1.94v-1.911
		c0-0.3,0.281-1.161,0.843-2.587c0.338-0.749,0.862-1.124,1.574-1.124C362.168,167.232,362.431,167.57,362.655,168.245z
		 M335.724,175.723l-0.506-15.293c-0.112-3.186-0.15-9.184-0.112-17.992c0.074-0.712,0.093-2.061,0.056-4.048
		c-0.112-0.149-0.562-0.3-1.35-0.45l0.394,38.177c0.3,0.3,0.581,0.449,0.844,0.449C335.535,176.565,335.761,176.284,335.724,175.723
		z M351.86,155.2c-0.301-0.188-0.525-0.281-0.675-0.281c-0.15,0-0.291,0.094-0.422,0.281c-0.132,0.188-0.29,0.263-0.478,0.225
		c-0.301,0-0.562,0.113-0.787,0.337c0.037,0.038,0.44,0.112,1.209,0.225c0.768,0.112,1.152,0.188,1.152,0.225V155.2z
		 M356.921,137.095l-3.823,0.281c0.036,0.15,0.112,0.281,0.225,0.394c0.112-0.037,0.318,0.02,0.618,0.169
		c0.3,0.15,0.487,0.225,0.562,0.225c0.524,0,1.218,0.076,2.08,0.225c0.075-0.037,0.159-0.225,0.253-0.562
		S356.958,137.246,356.921,137.095z M359.395,176.453l-1.687-0.225l-2.755,0.675l2.023,0.675h1.406c0.074,0,0.205,0.037,0.394,0.112
		c0.149,0.038,0.262,0.038,0.337,0L359.395,176.453z"/>
	<path fill="#78625A" d="M459.477,168.863c-0.038,2.062-1.088,4.17-3.148,6.325c-2.062,2.155-4.35,3.439-6.86,3.852
		c0.037,0.112-1.799,0.318-5.51,0.618l-16.306-0.899c-0.824,0.225-1.63,0.469-2.417,0.73c-1.275,0.412-1.912,0.937-1.912,1.574
		v1.688c-0.45,0.524-0.807,0.787-1.068,0.787c-0.562,0-0.862-0.413-0.899-1.237c0.037-1.35,0.543-2.418,1.518-3.205
		c0.937-0.486,1.893-1.002,2.868-1.546c0.974-0.543,1.48-1.283,1.518-2.221c0.09-1.949,0.314-3.411,0.675-4.386l0.112-4.892
		l-0.112-17.093l-0.787-9.221c-0.15-0.412-0.301-0.824-0.45-1.237c-0.263-0.562-0.712-0.89-1.349-0.984
		c-0.638-0.093-1.538-0.44-2.699-1.04c-1.462-0.787-2.118-1.537-1.968-2.249l0.562-2.418c0.412,0,0.824,0.094,1.236,0.281
		l-0.112,1.743c0.112,0.413,0.45,0.815,1.013,1.208c0.562,0.394,1.086,0.61,1.574,0.647c5.022,0.337,10.438,0.281,16.249-0.169
		c0.899-0.075,1.705-0.056,2.418,0.056c0.937,0.188,1.761,0.281,2.474,0.281c1.911,0.038,3.973,0.947,6.185,2.727
		c2.211,1.781,3.448,3.608,3.711,5.482c-0.038,0.45,0,0.881,0.112,1.293c0.112,0.301,0.075,1.219-0.112,2.755
		c-0.675,3.299-3.373,5.829-8.097,7.59c3.036,1.237,5.229,2.287,6.579,3.148c2.66,1.763,4.235,3.749,4.723,5.96l0.225,0.956
		c0.225,0.975,0.318,1.518,0.281,1.63C459.589,167.813,459.514,168.301,459.477,168.863z M432.432,176.622
		c-0.263-6.56-0.394-10.683-0.394-12.37c-0.038-7.909-0.094-15.799-0.169-23.671c0.149-0.412,0.226-1.35,0.226-2.812
		c-0.751,0-1.275,0.076-1.574,0.225l0.168,2.98v35.59c0,0.376,0.094,0.638,0.281,0.787h0.899
		C432.281,177.353,432.469,177.109,432.432,176.622z M448.681,148.565v-4.386c0-1.386-0.78-2.839-2.343-4.357
		c-1.562-1.518-3.002-2.277-4.318-2.277h-6.774c0,0.708-0.132,5.736-0.396,15.085c-0.038,1.789,0.338,2.682,1.129,2.682
		c2.559,0.076,3.707,0.132,3.443,0.168c0.188-0.037,1.11-0.149,2.767-0.337l0.565-0.113c1.241-0.149,2.539-0.956,3.895-2.417
		C448.003,151.152,448.681,149.802,448.681,148.565z M451.099,164.948c-0.112-1.917-1.2-3.721-3.261-5.413
		c-1.875-1.578-3.618-2.368-5.229-2.368h-6.128c-1.088,0-1.631,0.301-1.631,0.902l0.787,16.293c0.112,0.677,0.244,1.354,0.396,2.03
		c0.263,0.94,0.639,1.409,1.128,1.409h7.505c1.128,0,2.379-0.771,3.752-2.312c1.374-1.541,2.267-3.082,2.682-4.624
		C451.585,169.064,451.585,167.091,451.099,164.948z M452.645,143.477c-0.168-0.88-0.73-1.864-1.687-2.952
		c-0.956-1.086-1.884-1.799-2.783-2.136c1.199,1.799,1.874,2.792,2.024,2.98c0.824,1.274,1.255,2.174,1.293,2.699
		c0.112,0.787,0.169,1.518,0.169,2.193c0,2.849-0.994,5.154-2.98,6.916c0.658,0.038,1.472-0.496,2.44-1.603
		c0.97-1.105,1.564-2.165,1.784-3.177c0.183-1.349,0.273-2.099,0.273-2.249C452.991,145.248,452.813,144.358,452.645,143.477z
		 M456.159,169.031c0-1.536-0.094-2.848-0.281-3.936c-0.487-2.848-2.269-4.966-5.342-6.354c0.787,1.012,1.574,2.024,2.361,3.036
		c1.199,1.762,1.818,3.281,1.855,4.554c0.037,2.249-0.263,3.974-0.899,5.173c-1.05,1.649-2.1,3.28-3.148,4.892
		c1.462-0.412,2.773-1.537,3.936-3.374C455.653,171.449,456.159,170.119,456.159,169.031z"/>
	<path fill="#78625A" d="M500.183,168.245l-1.518,3.261l-0.281,1.124c0,0.675-0.038,1.5-0.112,2.474
		c-0.038,0.713-0.038,1.257,0,1.631c0.037,0.525,0.169,1.106,0.394,1.743l0.562,3.767c0-0.263-0.132-0.019-0.394,0.731l-0.45,0.225
		c-0.301,0-0.525-0.112-0.675-0.337c-0.112-0.525-0.281-1.312-0.506-2.361c-0.713-0.338-1.481-0.562-2.306-0.675
		c-2.023-0.637-4.349-1.049-6.972-1.237l-5.004-0.394l-13.101,0.225c-0.188,0-0.863,0.15-2.024,0.45
		c-1.162,0.301-1.818,0.487-1.968,0.562c-0.713,0.337-1.219,0.73-1.518,1.181c-0.15,0.599-0.45,1.48-0.9,2.643
		c-0.487,0.149-0.675,0.225-0.562,0.225c-0.263,0-0.488-0.169-0.675-0.506c-0.188-0.225-0.281-0.432-0.281-0.618
		c0-0.376,0.112-0.787,0.337-1.237c0.412-0.787,0.824-1.536,1.237-2.249c0.262-0.037,0.861-0.31,1.799-0.815
		c0.937-0.506,1.8-0.796,2.587-0.871c0.187-0.3,0.355-0.844,0.506-1.631l0.562-13.606l-0.394-14.169l-0.844-9.502
		c-0.112-0.149-0.375-0.281-0.787-0.394l-0.844-0.168c-1.349-0.524-2.174-0.88-2.474-1.068c-1.012-0.562-1.687-1.237-2.024-2.024
		c-0.225-0.524-0.337-0.993-0.337-1.406c0-0.375,0.112-0.711,0.337-1.012c0.113-0.037,0.3-0.187,0.562-0.45
		c0.45,0.263,0.787,0.712,1.012,1.35c0.338,0.787,0.684,1.396,1.041,1.827c0.355,0.431,1.227,0.853,2.614,1.265
		c1.199,0.112,2.773,0.168,4.723,0.168c2.999,0,6.841-0.152,11.526-0.456c2.511-0.19,5.022-0.38,7.534-0.569l3.768-0.512
		l0.787-0.855c0-0.113,0.149-0.777,0.449-1.993l1.406,0.282l-0.844,5.249v6.038l1.405,2.878c0,0.151-0.075,0.377-0.225,0.677
		c-0.263,0.226-0.525,0.338-0.787,0.338c-0.45,0-0.899-0.394-1.35-1.181c-0.413-0.675-0.618-1.162-0.618-1.462v-3.542l-3.936-1.574
		l-6.804-1.349l-7.365-0.45c-0.45,0.75-0.713,1.594-0.787,2.53c-0.038,1.088-0.095,2.193-0.169,3.317l-0.112,10.739
		c0,0.075,0.074,0.15,0.225,0.225c0.937,0.076,1.817,0.113,2.643,0.113c0.338,0,2.137-0.169,5.397-0.506l2.587-0.281
		c0.149,0,0.787-0.271,1.911-0.815c1.125-0.543,1.688-0.909,1.688-1.097v-1.518c0-0.149,0.08-0.318,0.242-0.506
		c0.161-0.187,0.315-0.281,0.459-0.281c0.323,0,0.522,0.047,0.595,0.141c0.072,0.094,0.09,0.216,0.053,0.366v0.394v9.277
		l1.575,3.655c-0.076,0.112-0.169,0.207-0.281,0.281c-0.226,0.15-0.638,0.207-1.237,0.168c-0.787-0.862-1.312-2.136-1.574-3.823
		c-0.038-1.086-0.562-1.817-1.574-2.193c-0.825-0.225-1.631-0.45-2.418-0.674c-3.148-0.675-6.261-1.012-9.333-1.012
		c-0.15,0-0.329,0.094-0.534,0.281c-0.207,0.188-0.31,0.356-0.31,0.506l0.73,15.687c0.037,0.787,0.094,1.575,0.169,2.362
		c0.149,0.899,0.524,1.349,1.125,1.349l9.614-0.562c1.762-0.375,3.551-0.778,5.369-1.209s3.308-1.077,4.471-1.94v-1.911
		c0-0.3,0.281-1.161,0.843-2.587c0.338-0.749,0.862-1.124,1.574-1.124C499.695,167.232,499.958,167.57,500.183,168.245z
		 M473.251,175.723l-0.506-15.293c-0.112-3.186-0.15-9.184-0.112-17.992c0.074-0.712,0.093-2.061,0.056-4.048
		c-0.112-0.149-0.562-0.3-1.35-0.45l0.394,38.177c0.3,0.3,0.581,0.449,0.844,0.449C473.062,176.565,473.288,176.284,473.251,175.723
		z M489.388,155.2c-0.301-0.188-0.525-0.281-0.675-0.281c-0.15,0-0.291,0.094-0.422,0.281c-0.132,0.188-0.29,0.263-0.478,0.225
		c-0.301,0-0.562,0.113-0.787,0.337c0.037,0.038,0.44,0.112,1.209,0.225c0.768,0.112,1.152,0.188,1.152,0.225V155.2z
		 M494.448,137.095l-3.823,0.281c0.036,0.15,0.112,0.281,0.225,0.394c0.112-0.037,0.318,0.02,0.618,0.169
		c0.3,0.15,0.487,0.225,0.562,0.225c0.524,0,1.218,0.076,2.08,0.225c0.075-0.037,0.159-0.225,0.253-0.562
		S494.485,137.246,494.448,137.095z M496.922,176.453l-1.687-0.225l-2.755,0.675l2.023,0.675h1.406c0.074,0,0.205,0.037,0.394,0.112
		c0.149,0.038,0.262,0.038,0.337,0L496.922,176.453z"/>
	<path fill="#78625A" d="M540.552,168.245l-1.518,3.261l-0.281,1.124c0,0.675-0.038,1.5-0.112,2.474
		c-0.038,0.713-0.038,1.257,0,1.631c0.037,0.525,0.169,1.106,0.394,1.743l0.562,3.767c0-0.263-0.132-0.019-0.394,0.731l-0.45,0.225
		c-0.301,0-0.525-0.112-0.675-0.337c-0.112-0.525-0.281-1.312-0.506-2.361c-0.713-0.338-1.481-0.562-2.306-0.675
		c-2.023-0.637-4.349-1.049-6.972-1.237l-5.004-0.394l-13.101,0.225c-0.188,0-0.863,0.15-2.024,0.45
		c-1.162,0.301-1.818,0.487-1.968,0.562c-0.713,0.337-1.219,0.73-1.518,1.181c-0.15,0.599-0.45,1.48-0.9,2.643
		c-0.487,0.149-0.675,0.225-0.562,0.225c-0.263,0-0.488-0.169-0.675-0.506c-0.188-0.225-0.281-0.432-0.281-0.618
		c0-0.376,0.112-0.787,0.337-1.237c0.412-0.787,0.824-1.536,1.237-2.249c0.262-0.037,0.861-0.31,1.799-0.815
		c0.937-0.506,1.8-0.796,2.587-0.871c0.187-0.3,0.355-0.844,0.506-1.631l0.562-13.606l-0.394-14.169l-0.844-9.502
		c-0.112-0.149-0.375-0.281-0.787-0.394l-0.844-0.168c-1.349-0.524-2.174-0.88-2.474-1.068c-1.012-0.562-1.687-1.237-2.024-2.024
		c-0.225-0.524-0.337-0.993-0.337-1.406c0-0.375,0.112-0.711,0.337-1.012c0.113-0.037,0.3-0.187,0.562-0.45
		c0.45,0.263,0.787,0.712,1.012,1.35c0.338,0.787,0.684,1.396,1.041,1.827c0.355,0.431,1.227,0.853,2.614,1.265
		c1.199,0.112,2.773,0.168,4.723,0.168c2.999,0,6.841-0.152,11.526-0.456c2.511-0.19,5.022-0.38,7.534-0.569l3.768-0.512
		l0.787-0.855c0-0.113,0.149-0.777,0.449-1.993l1.406,0.282l-0.844,5.249v6.038l1.405,2.878c0,0.151-0.075,0.377-0.225,0.677
		c-0.263,0.226-0.525,0.338-0.787,0.338c-0.45,0-0.899-0.394-1.35-1.181c-0.413-0.675-0.618-1.162-0.618-1.462v-3.542l-3.936-1.574
		l-6.804-1.349l-7.365-0.45c-0.45,0.75-0.713,1.594-0.787,2.53c-0.038,1.088-0.095,2.193-0.169,3.317l-0.112,10.739
		c0,0.075,0.074,0.15,0.225,0.225c0.937,0.076,1.817,0.113,2.643,0.113c0.338,0,2.137-0.169,5.397-0.506l2.587-0.281
		c0.149,0,0.787-0.271,1.911-0.815c1.125-0.543,1.688-0.909,1.688-1.097v-1.518c0-0.149,0.08-0.318,0.242-0.506
		c0.161-0.187,0.315-0.281,0.459-0.281c0.323,0,0.522,0.047,0.595,0.141c0.072,0.094,0.09,0.216,0.053,0.366v0.394v9.277
		l1.575,3.655c-0.076,0.112-0.169,0.207-0.281,0.281c-0.226,0.15-0.638,0.207-1.237,0.168c-0.787-0.862-1.312-2.136-1.574-3.823
		c-0.038-1.086-0.562-1.817-1.574-2.193c-0.825-0.225-1.631-0.45-2.418-0.674c-3.148-0.675-6.261-1.012-9.333-1.012
		c-0.15,0-0.329,0.094-0.534,0.281c-0.207,0.188-0.31,0.356-0.31,0.506l0.73,15.687c0.037,0.787,0.094,1.575,0.169,2.362
		c0.149,0.899,0.524,1.349,1.125,1.349l9.614-0.562c1.762-0.375,3.551-0.778,5.369-1.209s3.308-1.077,4.471-1.94v-1.911
		c0-0.3,0.281-1.161,0.843-2.587c0.338-0.749,0.862-1.124,1.574-1.124C540.064,167.232,540.327,167.57,540.552,168.245z
		 M513.62,175.723l-0.506-15.293c-0.112-3.186-0.15-9.184-0.112-17.992c0.074-0.712,0.093-2.061,0.056-4.048
		c-0.112-0.149-0.562-0.3-1.35-0.45l0.394,38.177c0.3,0.3,0.581,0.449,0.844,0.449C513.432,176.565,513.657,176.284,513.62,175.723z
		 M529.757,155.2c-0.301-0.188-0.525-0.281-0.675-0.281c-0.15,0-0.291,0.094-0.422,0.281c-0.132,0.188-0.29,0.263-0.478,0.225
		c-0.301,0-0.562,0.113-0.787,0.337c0.037,0.038,0.44,0.112,1.209,0.225c0.768,0.112,1.152,0.188,1.152,0.225V155.2z
		 M534.817,137.095l-3.823,0.281c0.036,0.15,0.112,0.281,0.225,0.394c0.112-0.037,0.318,0.02,0.618,0.169
		c0.3,0.15,0.487,0.225,0.562,0.225c0.524,0,1.218,0.076,2.08,0.225c0.075-0.037,0.159-0.225,0.253-0.562
		S534.854,137.246,534.817,137.095z M537.291,176.453l-1.687-0.225l-2.755,0.675l2.023,0.675h1.406c0.074,0,0.205,0.037,0.394,0.112
		c0.149,0.038,0.262,0.038,0.337,0L537.291,176.453z"/>
	<path fill="#78625A" d="M584.521,179.096c0,0.338-0.234,0.6-0.702,0.787c-0.47,0.188-0.815,0.281-1.041,0.281l-3.373,0.057
		c-3.148-0.487-5.66-2.337-7.534-5.553c-1.462-2.99-2.905-5.981-4.329-8.972c-1.95-3.328-4.536-5.328-7.76-6.001l-3.148-1.29
		c-0.038,1.762,0.019,4.405,0.169,7.928l0.956,10.233c-0.038,0.263,0.148,0.516,0.562,0.76c0.412,0.244,0.769,0.347,1.068,0.309
		c0.562,0.15,1.087,0.291,1.574,0.422c0.487,0.132,0.731,0.422,0.731,0.872c0,0.375-0.394,0.693-1.181,0.955
		c-0.076,0-0.656-0.168-1.743-0.506c-1.2-0.337-1.987-0.543-2.361-0.618l-5.566,0.169l-4.217,0.955l-1.237-0.394
		c-0.112-0.262-0.065-0.534,0.141-0.815c0.205-0.28,0.422-0.439,0.646-0.478c1.199-0.149,2.137-0.524,2.812-1.124l0.506-8.209
		v-12.989c0-1.012-0.02-2.446-0.057-4.301c-0.037-1.855-0.056-3.251-0.056-4.188l-0.731-6.129c-0.112-0.599-0.225-1.217-0.337-1.855
		c-0.225-0.824-0.544-1.33-0.956-1.518c-1.5-0.112-2.755-0.637-3.767-1.574c-1.013-0.937-1.519-1.968-1.519-3.092
		c0-0.937,0.318-1.406,0.956-1.406c0.374,0,0.712,0.207,1.012,0.619v1.687c0,0.413,0.356,0.835,1.07,1.265
		c0.713,0.432,1.22,0.646,1.521,0.646c2.141-0.112,3.905-0.093,5.295,0.057l9.576-0.675h4.055c0.488,0,1.576,0.15,3.267,0.45
		c2.479,0.45,4.694,1.743,6.647,3.879c2.025,2.249,3.038,4.667,3.038,7.253l0.166,1.518c0,2.736-1.05,5.136-3.148,7.197
		c-1.875,1.912-4.329,3.261-7.365,4.048c5.473,1.687,9.127,7.01,10.964,15.968c0.112,0.6,0.562,1.209,1.35,1.827
		s1.499,0.928,2.137,0.928c0.074,0,0.233-0.065,0.478-0.197c0.243-0.131,0.422-0.196,0.534-0.196c0.225,0,0.431,0.132,0.618,0.394
		C584.427,178.74,584.521,178.946,584.521,179.096z M554.159,177.072c-0.112-1.502-0.226-3.003-0.338-4.505
		c-0.075-1.126-0.112-4.691-0.112-10.698v-23.874h-2.08l0.394,4.223c0.374,9.159,0.562,16.911,0.562,23.254
		c0.036,3.566,0,6.813-0.113,9.741c0.037,0.601,0.075,1.22,0.113,1.858C553.071,177.109,553.597,177.109,554.159,177.072z
		 M570.745,145.023c-0.262-1.461-1.036-2.96-2.324-4.498c-1.288-1.536-2.622-2.53-4.004-2.979l-5.096-0.225l-1.96,0.45l-0.729,5.735
		v13.101c1.424,0.638,3.561,1.012,6.41,1.125c1.536-0.187,3.055-0.862,4.554-2.024c1.499-1.162,2.474-2.511,2.924-4.048l0.112-0.506
		c0.225-1.274,0.338-2.061,0.338-2.361C570.92,147.553,570.846,146.298,570.745,145.023z M577.661,177.466
		c-1.312-2.999-2.643-5.997-3.992-8.996c-1.725-3.336-3.974-5.735-6.747-7.197c1.986,1.762,3.748,4.161,5.285,7.197
		c1.013,2.174,2.043,4.367,3.093,6.578C575.824,176.022,576.611,176.828,577.661,177.466z M575.412,146.035
		c0-1.349-0.74-2.942-2.221-4.779c-1.481-1.836-2.934-2.923-4.357-3.261c2.249,1.762,3.842,3.936,4.779,6.522
		c0.225,1.237,0.337,2.361,0.337,3.374c0,4.161-1.894,7.329-5.679,9.502c1.611-0.337,3.036-1.105,4.273-2.306
		c1.236-1.199,2.061-2.53,2.474-3.992c0.262-1.012,0.412-1.593,0.45-1.743c0.036-0.149,0.056-0.45,0.056-0.899
		C575.449,147.704,575.412,146.898,575.412,146.035z"/>
</g>
</svg>
