<?xml version="1.0" encoding="utf-8"?>
<!-- Generator: Adobe Illustrator 17.1.0, SVG Export Plug-In . SVG Version: 6.00 Build 0)  -->
<!DOCTYPE svg PUBLIC "-//W3C//DTD SVG 1.1//EN" "http://www.w3.org/Graphics/SVG/1.1/DTD/svg11.dtd">
<svg version="1.1" id="Layer_1" xmlns="http://www.w3.org/2000/svg" xmlns:xlink="http://www.w3.org/1999/xlink" x="0px" y="0px"
	 viewBox="0 0 45 46" enable-background="new 0 0 45 46" xml:space="preserve">
<g>
	<path fill="#FFFFFF" d="M3.936,45.257c-1.761,0-3.193-1.672-3.193-3.728c0-2.146,1.432-3.818,3.193-3.818h37.128
		c1.761,0,3.193,1.672,3.193,3.728c0,2.146-1.432,3.818-3.193,3.818H3.936z"/>
	<path fill="#FFFFFF" d="M41.064,38.454c1.351,0,2.45,1.339,2.45,2.985v0.09c0,1.646-1.099,2.985-2.45,2.985H3.936
		c-1.351,0-2.45-1.339-2.45-2.985v-0.09c0-1.646,1.099-2.985,2.45-2.985H41.064 M41.064,36.967H3.936
		C1.762,36.967,0,38.969,0,41.439v0.09C0,43.998,1.762,46,3.936,46h37.128C43.238,46,45,43.998,45,41.529v-0.09
		C45,38.969,43.238,36.967,41.064,36.967L41.064,36.967z"/>
</g>
<g>
	<path fill="#FFFFFF" d="M3.936,26.822c-1.761,0-3.194-1.667-3.194-3.717c0-2.14,1.433-3.808,3.194-3.808h37.128
		c1.761,0,3.194,1.668,3.194,3.718c0,2.14-1.433,3.807-3.194,3.807H3.936z"/>
	<path fill="#FFFFFF" d="M41.064,20.04c1.352,0,2.452,1.335,2.452,2.975v0.09c0,1.641-1.1,2.975-2.452,2.975H3.936
		c-1.352,0-2.452-1.335-2.452-2.975v-0.09c0-1.641,1.1-2.975,2.452-2.975H41.064 M41.064,18.555H3.936
		C1.762,18.555,0,20.552,0,23.015v0.09c0,2.463,1.762,4.46,3.936,4.46h37.128c2.174,0,3.936-1.997,3.936-4.46v-0.09
		C45,20.552,43.238,18.555,41.064,18.555L41.064,18.555z"/>
</g>
<g>
	<path fill="#FFFFFF" d="M3.936,8.269c-1.761,0-3.194-1.668-3.194-3.718c0-2.14,1.433-3.809,3.194-3.809h37.128
		c1.761,0,3.194,1.668,3.194,3.719c0,2.14-1.433,3.808-3.194,3.808H3.936z"/>
	<path fill="#FFFFFF" d="M41.064,1.485c1.352,0,2.451,1.335,2.451,2.976v0.09c0,1.641-1.1,2.976-2.451,2.976H3.936
		c-1.352,0-2.451-1.335-2.451-2.976v-0.09c0-1.641,1.1-2.976,2.451-2.976H41.064 M41.064,0H3.936C1.762,0,0,1.997,0,4.461v0.09
		c0,2.464,1.762,4.461,3.936,4.461h37.128C43.238,9.011,45,7.014,45,4.551v-0.09C45,1.997,43.238,0,41.064,0L41.064,0z"/>
</g>
</svg>
